<svg width="35" height="35" viewBox="0 0 35 35" fill="none" xmlns="http://www.w3.org/2000/svg">
<g clip-path="url(#clip0_241_351)">
<path d="M17.5 35C27.165 35 35 27.165 35 17.5C35 7.83502 27.165 0 17.5 0C7.83502 0 0 7.83502 0 17.5C0 27.165 7.83502 35 17.5 35Z" fill="#F06543"/>
</g>
<g clip-path="url(#clip1_241_351)">
<path d="M15.368 16.9199H14.592C12.5792 16.9223 10.6495 17.7229 9.22623 19.1461C7.80296 20.5694 7.00234 22.4991 7 24.5119V24.9861C7.00059 25.52 7.21295 26.0319 7.5905 26.4094C7.96804 26.787 8.47994 26.9993 9.01387 26.9999H20.9461C21.4801 26.9993 21.992 26.787 22.3695 26.4094C22.747 26.0319 22.9594 25.52 22.96 24.9861V24.5119C22.9577 22.4991 22.157 20.5694 20.7338 19.1461C19.3105 17.7229 17.3808 16.9223 15.368 16.9199Z" fill="white"/>
<path d="M14.9804 15.24C17.5319 15.24 19.6004 13.1716 19.6004 10.62C19.6004 8.06844 17.5319 6 14.9804 6C12.4288 6 10.3604 8.06844 10.3604 10.62C10.3604 13.1716 12.4288 15.24 14.9804 15.24Z" fill="white"/>
<path d="M27.5804 15.2399H24.6404V12.2999C24.6404 12.1885 24.5962 12.0817 24.5174 12.0029C24.4386 11.9241 24.3318 11.8799 24.2204 11.8799C24.109 11.8799 24.0022 11.9241 23.9234 12.0029C23.8447 12.0817 23.8004 12.1885 23.8004 12.2999V15.2399H20.8604C20.749 15.2399 20.6422 15.2841 20.5634 15.3629C20.4847 15.4417 20.4404 15.5485 20.4404 15.6599C20.4404 15.7713 20.4847 15.8781 20.5634 15.9569C20.6422 16.0356 20.749 16.0799 20.8604 16.0799H23.8004V19.0199C23.8004 19.1313 23.8447 19.2381 23.9234 19.3169C24.0022 19.3956 24.109 19.4399 24.2204 19.4399C24.3318 19.4399 24.4386 19.3956 24.5174 19.3169C24.5962 19.2381 24.6404 19.1313 24.6404 19.0199V16.0799H27.5804C27.6918 16.0799 27.7986 16.0356 27.8774 15.9569C27.9562 15.8781 28.0004 15.7713 28.0004 15.6599C28.0004 15.5485 27.9562 15.4417 27.8774 15.3629C27.7986 15.2841 27.6918 15.2399 27.5804 15.2399Z" fill="white"/>
</g>
<defs>
<clipPath id="clip0_241_351">
<rect width="35" height="35" fill="white"/>
</clipPath>
<clipPath id="clip1_241_351">
<rect width="21" height="21" fill="white" transform="translate(7 6)"/>
</clipPath>
</defs>
</svg>
