<svg width="32" height="32" viewBox="0 0 32 32" fill="none" xmlns="http://www.w3.org/2000/svg">
<path d="M15.3995 7.55592L16.0001 8.35861L16.6006 7.55592C17.8124 5.93623 19.7541 4.8833 21.9201 4.8833C25.5957 4.8833 28.5834 7.87734 28.5834 11.5866C28.5834 13.0917 28.3434 14.4806 27.9265 15.7691L27.9249 15.774C26.9253 18.9374 24.8758 21.4898 22.6596 23.3945C20.4401 25.302 18.0965 26.5224 16.5852 27.0366L16.5851 27.0366L16.5771 27.0394C16.4557 27.0822 16.2465 27.1166 16.0001 27.1166C15.7537 27.1166 15.5445 27.0822 15.423 27.0394L15.423 27.0393L15.415 27.0366C13.9036 26.5224 11.5601 25.302 9.34059 23.3945C7.1244 21.4898 5.07486 18.9374 4.07523 15.774L4.07524 15.774L4.07366 15.7691C3.65679 14.4806 3.41675 13.0917 3.41675 11.5866C3.41675 7.87734 6.40446 4.8833 10.0801 4.8833C12.2461 4.8833 14.1878 5.93623 15.3995 7.55592Z" fill="white" stroke="white" stroke-width="1.5"/>
</svg>
