<svg width="35" height="35" viewBox="0 0 35 35" fill="none" xmlns="http://www.w3.org/2000/svg">
<g clip-path="url(#clip0_241_345)">
<path d="M17.5 35C27.165 35 35 27.165 35 17.5C35 7.83502 27.165 0 17.5 0C7.83502 0 0 7.83502 0 17.5C0 27.165 7.83502 35 17.5 35Z" fill="#F06543"/>
<path d="M13.026 25.4994C13.0236 25.7954 12.9045 26.0785 12.6945 26.2872C12.4845 26.4959 12.2007 26.6133 11.9047 26.6139H8.83295C8.53713 26.6133 8.25353 26.4958 8.04393 26.2871C7.83432 26.0783 7.71569 25.7952 7.71387 25.4994V16.7494C7.71568 16.4534 7.83424 16.17 8.04378 15.9609C8.25332 15.7518 8.53692 15.6339 8.83295 15.6326H11.9047C12.2011 15.6332 12.4853 15.751 12.6953 15.9601C12.9053 16.1693 13.0242 16.453 13.026 16.7494V25.4994ZM26.1027 18.6353C26.3262 18.8147 26.4946 19.0535 26.5888 19.3242C26.683 19.5949 26.699 19.8867 26.6351 20.1661C26.5712 20.4455 26.4299 20.7013 26.2274 20.9041C26.025 21.107 25.7695 21.2488 25.4902 21.3132C25.7145 21.4919 25.8839 21.7302 25.9789 22.0009C26.0739 22.2715 26.0906 22.5634 26.0271 22.8431C25.9636 23.1228 25.8225 23.3789 25.62 23.582C25.4175 23.7851 25.1618 23.9269 24.8823 23.9912C25.1281 24.1893 25.3065 24.4585 25.3931 24.762C25.4798 25.0656 25.4703 25.3884 25.3661 25.6864C25.2619 25.9843 25.0681 26.2427 24.8112 26.4261C24.5543 26.6095 24.2469 26.7089 23.9313 26.7106L15.2688 26.6139C14.9736 26.6127 14.6908 26.4949 14.4821 26.2861C14.2733 26.0774 14.1555 25.7946 14.1543 25.4994V16.7494C14.1543 15.3678 18.5731 12.8165 18.8102 11.4534C18.9576 10.5507 18.7619 8.28955 19.3698 8.28955C20.4014 8.28955 21.7254 8.6856 21.7254 10.9767C21.7254 12.9984 20.4014 15.6211 20.4014 15.6211H25.7596C26.1345 15.6212 26.4963 15.7593 26.776 16.009C27.0556 16.2587 27.2336 16.6026 27.276 16.9751C27.3184 17.3476 27.2223 17.7227 27.0059 18.0289C26.7895 18.3351 26.468 18.5509 26.1027 18.6353Z" fill="white"/>
</g>
<defs>
<clipPath id="clip0_241_345">
<rect width="35" height="35" fill="white"/>
</clipPath>
</defs>
</svg>
