<svg width="113" height="81" viewBox="0 0 113 81" fill="none" xmlns="http://www.w3.org/2000/svg">
<path d="M6.93629 0C7.79159 0 8.49455 0.703016 8.49455 1.55832V8.39655C8.49455 8.84924 8.69494 9.0495 9.09756 9.0495H15.5331C18.0969 9.0495 20.0579 11.0605 20.0579 13.5242V33.6342C20.0579 34.4895 19.355 35.1925 18.4997 35.1925H13.372C12.5167 35.1925 11.8637 34.4895 11.8637 33.6342V16.2382C11.8637 15.2828 11.1086 14.5798 10.1553 14.5798C9.20193 14.5798 8.49679 15.2828 8.49679 16.2382V33.6342C8.49679 34.4895 7.79363 35.1925 6.93832 35.1925H1.50835C0.703118 35.1925 4.61711e-06 34.4895 4.61711e-06 33.6342V1.55832C-0.00208148 0.703016 0.703012 0 1.55623 0H6.93629Z" fill="#9C95DC"/>
<path d="M28.7548 9.04956C29.6101 9.04956 30.2631 9.70251 30.2631 10.5578V25.5902C30.2631 26.5457 31.0182 27.2988 31.9715 27.2988C32.9249 27.2988 33.63 26.5457 33.63 25.5902V10.5578C33.63 9.70251 34.3332 9.04956 35.1885 9.04956H40.6185C41.4237 9.04956 42.1268 9.75258 42.1268 10.5578V39.7173C42.1268 42.181 39.663 44.192 37.1493 44.192H26.5915C24.0277 44.192 22.0668 42.181 22.0668 39.7173V36.0479C22.0668 35.1926 22.7698 34.4896 23.6251 34.4896H29.4057C30.261 34.4896 30.914 35.1926 30.914 36.0479V37.2536C30.914 38.2091 31.3166 38.9121 32.272 38.9121C33.2275 38.9121 33.63 38.2091 33.63 37.2536V33.4319C33.63 32.9792 33.4298 32.7789 33.0272 32.7789H26.5416C24.0779 32.7789 22.0668 30.7679 22.0668 28.3043V10.5578C22.0668 9.70251 22.7697 9.04956 23.575 9.04956H28.7527H28.7548Z" fill="#9C95DC"/>
<path d="M45.6481 44.192C44.8429 44.192 44.1397 43.5391 44.1397 42.6838V10.5578C44.1397 9.70251 44.8429 9.04956 45.6481 9.04956H59.6751C62.2389 9.04956 64.1997 11.0606 64.1997 13.5242V30.6678C64.1997 33.1315 62.2389 35.1425 59.6751 35.1425H53.2393C52.8367 35.1425 52.6365 35.3428 52.6365 35.7954V42.6838C52.6365 43.5391 51.9336 44.192 51.0783 44.192H45.6481ZM56.0055 27.9538V15.9879C56.0055 15.0325 55.2504 14.3295 54.2971 14.3295C53.3437 14.3295 52.6386 15.0325 52.6386 15.9879V27.9538C52.6386 28.9092 53.3416 29.6623 54.2971 29.6623C55.2525 29.6623 56.0055 28.9071 56.0055 27.9538Z" fill="#9C95DC"/>
<path d="M80.4379 9.04956C83.0017 9.04956 84.9627 11.0606 84.9627 13.5242V22.5237C84.9627 23.379 84.2598 24.0319 83.4045 24.0319H74.8077C74.405 24.0319 74.2046 24.2322 74.2046 24.6348V28.2041C74.2046 29.1596 74.6072 29.9126 75.5627 29.9126C76.5181 29.9126 76.9708 29.1575 76.9708 28.2041L76.9209 27.3989C76.9209 26.5436 77.6238 25.8906 78.4791 25.8906H83.4065C84.2618 25.8906 84.9648 26.5436 84.9648 27.3989V30.6678C84.9648 33.1315 83.004 35.1926 80.4401 35.1926H70.6876C68.2239 35.1926 66.2129 33.1315 66.2129 30.6678V13.5242C66.2129 11.0606 68.2239 9.04956 70.6876 9.04956H80.4401H80.4379ZM74.2046 16.2383V17.8466C74.2046 18.1992 74.405 18.3995 74.8077 18.3995H76.3659C76.7185 18.3995 76.9186 18.1992 76.9186 17.8466L76.9687 16.2383C76.9687 15.2828 76.516 14.5798 75.5606 14.5798C74.6052 14.5798 74.2026 15.2828 74.2026 16.2383H74.2046Z" fill="#9C95DC"/>
<path d="M61.4691 36.3545C62.3244 36.3545 63.0273 37.0575 63.0273 37.8627V69.9887C63.0273 70.7939 62.3244 71.4969 61.4691 71.4969H56.0389C55.2337 71.4969 54.5308 70.7939 54.5308 69.9887V37.8627C54.5308 37.0575 55.2337 36.3545 56.089 36.3545H61.4691Z" fill="#9C95DC"/>
<path d="M73.535 69.9885C73.535 70.8438 72.832 71.4968 71.9767 71.4968H66.5466C65.7413 71.4968 65.0384 70.7937 65.0384 69.9885V46.9121C65.0384 46.1068 65.7414 45.4038 66.5967 45.4038H71.9767C72.832 45.4038 73.535 46.1068 73.535 46.9121V69.9885Z" fill="#9C95DC"/>
<path d="M89.4207 36.4045C90.276 36.4045 90.9289 37.0575 90.9289 37.9128V42.2373C90.9289 43.0425 90.276 43.7455 89.4207 43.7455H85.0462C84.4934 43.7455 84.0407 44.1982 84.0407 44.751C84.0407 45.3038 84.4934 45.7565 85.0462 45.7565H89.0681C90.0235 45.7565 90.5764 46.4595 90.5764 47.2648V51.6393C90.5764 52.4446 89.8733 53.1476 89.0681 53.1476H85.0462C84.4934 53.1476 84.0407 53.6003 84.0407 54.1531V70.0408C84.0407 70.8461 83.3377 71.5491 82.4824 71.5491H77.0522C76.247 71.5491 75.5439 70.8461 75.5439 69.9908V40.8813C75.5439 38.4176 77.5049 36.4066 80.0687 36.4066H89.4207V36.4045Z" fill="#9C95DC"/>
<path d="M99.628 45.4038C100.483 45.4038 101.136 46.0568 101.136 46.9121V61.9445C101.136 62.8999 101.891 63.653 102.845 63.653C103.798 63.653 104.503 62.8999 104.503 61.9445V46.9121C104.503 46.0568 105.206 45.4038 106.061 45.4038H111.492C112.297 45.4038 113 46.1068 113 46.9121V76.0716C113 78.5353 110.536 80.5462 108.022 80.5462H97.4647C94.9009 80.5462 92.94 78.5353 92.94 76.0716V72.4021C92.94 71.5468 93.643 70.8438 94.4983 70.8438H100.279C101.134 70.8438 101.787 71.5468 101.787 72.4021V73.6079C101.787 74.5633 102.19 75.2663 103.145 75.2663C104.101 75.2663 104.503 74.5633 104.503 73.6079V69.7861C104.503 69.3335 104.303 69.1332 103.9 69.1332H97.4146C94.9509 69.1332 92.94 67.1222 92.94 64.6585V46.9121C92.94 46.0568 93.6429 45.4038 94.4482 45.4038H99.6259H99.628Z" fill="#9C95DC"/>
<path d="M68.3428 37.0429C68.881 37.0826 69.2962 37.4622 69.4297 38.0234C69.4714 38.2049 69.488 38.3885 69.5214 38.57C69.5276 38.6033 69.5194 38.6513 69.5611 38.6597C69.6091 38.668 69.6257 38.6179 69.6403 38.5846C69.7488 38.3593 69.8032 38.1173 69.8532 37.8732C69.9721 37.287 70.0221 36.6946 69.972 36.0979C69.9553 35.9018 69.9199 35.7099 69.8553 35.5076C70.1202 35.6536 70.3391 35.8288 70.5373 36.0249C70.9232 36.4046 71.2216 36.8302 71.4302 37.2995C71.5137 37.4894 71.7243 37.9692 71.7452 38.4531C71.7452 38.4928 71.7556 38.7681 71.7702 39.3147C71.7702 39.321 71.7745 39.4315 71.7745 39.4399C71.8767 39.321 71.9706 39.1937 72.1229 39.129C72.3002 39.056 72.4378 39.0706 72.6381 39.1854C72.4587 39.3335 72.4106 39.5379 72.3981 39.7549C72.3814 40.0761 72.4379 40.3911 72.4712 40.7082C72.538 41.3549 72.5296 42.0016 72.3586 42.6337C72.079 43.6642 71.4094 44.3026 70.3664 44.5279C69.484 44.7177 68.6036 44.6989 67.7421 44.4131C66.7533 44.0856 66.1523 43.4014 65.9312 42.3834C65.8936 42.2123 65.8541 42.0412 65.8562 41.841C66.0544 42.1581 66.2149 42.4731 66.4444 42.7797C66.4548 42.6587 66.4278 42.569 66.4132 42.4814C66.3464 42.0767 66.2943 41.672 66.3757 41.261C66.4925 40.6769 66.8116 40.2305 67.2914 39.8925C67.6774 39.6214 68.0446 39.3335 68.3053 38.9309C68.4097 38.7702 68.8456 38.1215 68.6016 37.5081C68.5119 37.2808 68.3553 37.1285 68.2426 37.0388C68.2781 37.0409 68.3135 37.045 68.3469 37.0471L68.3428 37.0429Z" fill="#A5125A"/>
<path d="M69.4381 40.679C70.0931 40.1867 70.6835 39.6819 70.7419 38.7703C70.8358 38.9851 70.9234 39.175 71.0026 39.369C71.2572 39.9885 71.4679 40.6206 71.591 41.2798C71.6598 41.647 71.7141 42.0183 71.6953 42.3917C71.6703 42.8632 71.595 43.3221 71.3092 43.7185C71.0172 44.1253 70.6104 44.3631 70.1285 44.4653C69.536 44.5926 68.9415 44.5926 68.3533 44.4486C67.7692 44.3068 67.379 43.852 67.2955 43.2554C67.2225 42.7255 67.2936 42.229 67.594 41.7763C67.7171 41.5907 67.8672 41.4321 68.0133 41.2652C68.2344 41.0107 68.4743 40.7687 68.614 40.4537C68.7016 40.2577 68.7706 40.0595 68.7664 39.8404C68.7664 39.7507 68.7872 39.7236 68.8748 39.7695C69.1001 39.8905 69.2774 40.0532 69.3859 40.2889C69.4381 40.4037 69.4235 40.5247 69.4381 40.6728V40.679Z" fill="#F06543"/>
<path d="M68.7059 42.0307C68.7622 42.4876 69.002 42.6628 69.3608 42.5523C69.5298 42.5001 69.6404 42.3353 69.6466 42.1225C69.655 41.843 69.6216 41.5718 69.5319 41.3068C69.5194 41.2714 69.488 41.2255 69.5214 41.1942C69.5547 41.165 69.5987 41.1942 69.6363 41.2067C70.2975 41.4466 70.6501 41.9389 70.7753 42.6148C70.8378 42.9507 70.8482 43.2845 70.7773 43.6224C70.7022 43.9854 70.333 44.3776 69.9054 44.4235C69.5278 44.4631 69.1627 44.4756 68.8018 44.3359C68.4555 44.2024 68.2614 43.8415 68.2844 43.3971C68.299 43.1051 68.372 42.8297 68.4679 42.5606C68.5263 42.3937 68.6118 42.2352 68.7036 42.0328L68.7059 42.0307Z" fill="white"/>
</svg>
