<svg width="32" height="32" viewBox="0 0 32 32" fill="none" xmlns="http://www.w3.org/2000/svg">
<path d="M12.999 25.3353L12.999 25.3353L12.9935 25.3282C12.7935 25.0692 12.5166 24.8715 12.2522 24.7393C11.989 24.6077 11.6629 24.5034 11.3334 24.5034H9.33342C6.06469 24.5034 3.41675 21.8629 3.41675 18.6134V17.2801V9.30675C3.41675 6.05723 6.06469 3.41675 9.33342 3.41675H22.6667C25.9355 3.41675 28.5834 6.05723 28.5834 9.30675V18.6134C28.5834 21.8629 25.9355 24.5034 22.6667 24.5034H20.6667C20.0155 24.5034 19.396 24.8158 19.003 25.3329L19.0012 25.3353L17.0012 27.9886L17.0001 27.9901C16.6809 28.4156 16.3114 28.5701 16.0001 28.5701C15.6888 28.5701 15.3192 28.4156 15.0001 27.9901L14.999 27.9886L12.999 25.3353ZM8.58342 14.6667C8.58342 15.8094 9.50098 16.7501 10.6667 16.7501C11.8325 16.7501 12.7501 15.8094 12.7501 14.6667C12.7501 13.5192 11.8143 12.5834 10.6667 12.5834C9.5192 12.5834 8.58342 13.5192 8.58342 14.6667ZM13.9167 14.6667C13.9167 15.8094 14.8343 16.7501 16.0001 16.7501C17.1658 16.7501 18.0834 15.8094 18.0834 14.6667C18.0834 13.5192 17.1476 12.5834 16.0001 12.5834C14.8525 12.5834 13.9167 13.5192 13.9167 14.6667ZM19.2501 14.6667C19.2501 15.8094 20.1676 16.7501 21.3334 16.7501C22.4992 16.7501 23.4167 15.8094 23.4167 14.6667C23.4167 13.5192 22.481 12.5834 21.3334 12.5834C20.1859 12.5834 19.2501 13.5192 19.2501 14.6667Z" fill="white" stroke="white" stroke-width="1.5"/>
</svg>
