<svg width="276" height="200" viewBox="0 0 276 200" fill="none" xmlns="http://www.w3.org/2000/svg">
<mask id="mask0_665_18053" style="mask-type:alpha" maskUnits="userSpaceOnUse" x="0" y="0" width="276" height="200">
<rect width="276" height="200" rx="76.1905" fill="#FFB21D"/>
</mask>
<g mask="url(#mask0_665_18053)">
<path fill-rule="evenodd" clip-rule="evenodd" d="M18.2834 36.7454C18.2148 36.7417 18.1467 36.7415 18.0795 36.7446C17.0103 36.7933 16.1494 37.6828 16.1601 38.7777L16.6287 86.8466C16.6322 87.2004 16.7278 87.5374 16.896 87.8304L16.8044 87.7994C16.5409 87.71 16.2548 87.8513 16.1655 88.1148C16.0762 88.3784 16.2174 88.6644 16.481 88.7538L19.3387 89.7224L16.1393 93.0632L16.2772 107.694C16.2323 107.682 16.185 107.675 16.136 107.675C15.8577 107.677 15.6336 107.904 15.6354 108.182L15.8651 143.344L12.3912 143.646C11.7762 143.699 11.2769 144.008 10.9537 144.442C9.82928 144.396 8.85135 145.303 8.86289 146.476L8.86308 146.476L9.32778 193.695C9.33608 194.537 9.86676 195.285 10.6584 195.571L10.6591 195.571L18.9119 198.549C19.096 198.783 19.3218 198.964 19.5518 199.037L25.3515 200.874L39.595 206.014L39.9568 206.145C40.022 206.168 40.0919 206.176 40.1607 206.167C40.2025 206.161 40.2423 206.15 40.2792 206.134C40.367 206.134 40.4549 206.128 40.5424 206.116L41.1883 206.031C41.5252 206.193 41.9118 206.262 42.3134 206.21L105.074 198.115C105.348 198.079 105.542 197.83 105.51 197.556L108.02 197.225L108.027 199.994C108.029 200.955 108.709 201.78 109.651 201.966L213.35 222.473C213.477 222.498 213.605 222.511 213.734 222.512L213.734 222.52C213.734 222.537 213.746 222.551 213.762 222.555C213.767 222.556 213.772 222.556 213.777 222.554L214.167 222.466L214.186 222.462L245.595 215.36L252.895 213.71L272.38 209.305C272.494 209.279 272.604 209.244 272.709 209.2C273.446 208.894 273.945 208.172 273.951 207.353L274.679 102.627C274.679 102.596 274.679 102.565 274.678 102.534C274.66 102.073 274.488 101.654 274.214 101.324L274.695 100.369L166.439 94.071L107.779 98.8577L108.638 99.3866C108.122 99.7511 107.783 100.353 107.784 101.038L107.893 145.22L106.637 145.323C106.383 144.774 105.882 144.333 105.17 144.206L105.034 144.181L105.513 92.5593L105.443 92.5597L105.454 91.5737L115.126 91.346C116.221 91.3202 117.094 90.4257 117.094 89.3311V39.1556C117.094 38.0402 116.188 37.1369 115.073 37.1402L30.2377 37.3862L18.2834 36.7454Z" fill="white"/>
<g opacity="0.9">
<path d="M21.9296 87.017L16.1392 93.0634L19.1603 103.141L105.262 108.935L105.513 86.2612L21.9296 87.017Z" fill="white"/>
<path d="M31.1584 93.2006L17.9967 88.7359C17.1857 88.4608 16.6371 87.7033 16.6287 86.8469L16.1601 38.7778C16.1488 37.6146 17.1217 36.6833 18.2833 36.7456L30.2376 37.3864L115.073 37.1403C116.188 37.1371 117.094 38.0404 117.094 39.1558V89.3313C117.094 90.4259 116.22 91.3204 115.126 91.3461L31.8533 93.3069C31.6172 93.3124 31.382 93.2765 31.1584 93.2006Z" fill="#A9A9A9"/>
<path d="M31.2652 38.4081C31.2632 37.8422 30.8033 37.3849 30.2378 37.3866L18.282 36.7456C17.1212 36.6834 16.1489 37.6147 16.1603 38.7779L16.6289 86.8468C16.6372 87.7033 17.1856 88.4609 17.9963 88.7359L28.7878 92.3966C30.0966 92.8405 31.4533 91.8636 31.4484 90.4807L31.2652 38.4081Z" fill="#D4D4D4"/>
<path d="M72.5188 138.434L12.3913 143.646C10.8292 143.781 10.0132 145.57 10.935 146.839L12.7184 149.292C12.8168 149.428 12.9316 149.55 13.0602 149.657L47.5626 178.348C48.1985 178.877 49.0928 178.963 49.8183 178.567L105.782 147.958C107.451 147.045 107.043 144.541 105.17 144.206L73.0479 138.458C72.8733 138.427 72.6955 138.419 72.5188 138.434Z" fill="white"/>
<path d="M16.6427 146.473L105.01 146.725L105.513 92.5596L16.1392 93.0634L16.6427 146.473Z" fill="#A9A9A9"/>
<path d="M8.86322 146.476L9.32811 193.695C9.3364 194.537 9.86725 195.285 10.6593 195.571L39.5951 206.014C39.8982 206.124 40.2231 206.159 40.5426 206.117L109.057 197.089C110.056 196.957 110.804 196.108 110.809 195.101L111.041 147.159C111.047 145.977 110.039 145.044 108.862 145.141L40.6062 150.731C40.4086 150.748 40.2096 150.734 40.0158 150.693L11.3044 144.487C10.0408 144.214 8.85049 145.184 8.86322 146.476Z" fill="#A9A9A9"/>
<path d="M40.3332 150.776C40.3332 150.764 40.3229 150.755 40.3109 150.755C40.3088 150.756 40.3068 150.756 40.3048 150.755L11.3021 144.486C10.0395 144.213 8.85017 145.183 8.86289 146.476L9.32778 193.695C9.33608 194.537 9.86676 195.285 10.6584 195.571L39.9568 206.145C40.022 206.168 40.0919 206.176 40.1607 206.167C40.3773 206.138 40.539 205.953 40.5382 205.735L40.3332 150.776Z" fill="#D4D4D4"/>
<path d="M166.439 94.071L107.779 98.8577L160.145 131.105L258.582 132.365L274.695 100.369L166.439 94.071Z" fill="white"/>
<path d="M107.785 101.039L108.027 199.994C108.029 200.955 108.709 201.78 109.651 201.967L213.351 222.474C213.627 222.528 213.911 222.524 214.186 222.462L272.38 209.305C273.293 209.098 273.944 208.29 273.951 207.353L274.679 102.627C274.688 101.424 273.647 100.481 272.45 100.609L213.449 106.9C213.327 106.913 213.204 106.915 213.082 106.906L109.954 99.0241C108.782 98.9345 107.782 99.863 107.785 101.039Z" fill="#D4D4D4"/>
<path d="M213.762 222.555C213.746 222.552 213.734 222.537 213.734 222.521L213.532 108.707C213.53 107.675 214.307 106.809 215.333 106.699L272.45 100.609C273.647 100.481 274.687 101.424 274.679 102.627L273.951 207.353C273.944 208.289 273.293 209.098 272.38 209.305L213.777 222.555C213.772 222.556 213.767 222.556 213.762 222.555Z" fill="#A9A9A9"/>
<path d="M40.0562 151.26L40.544 204.226C40.5523 205.132 41.3503 205.827 42.2489 205.711L105.01 197.615" stroke="#232323" stroke-width="1.00773" stroke-linecap="round"/>
<path d="M16.6431 88.2766L32.2521 93.5672L102.493 91.5517" stroke="#232323" stroke-width="1.00773" stroke-linecap="round"/>
<path d="M31.7485 93.3154L31.2446 46.96" stroke="#232323" stroke-width="1.00773" stroke-linecap="round"/>
<path d="M253.673 212.607C253.735 213.12 253.399 213.596 252.895 213.71L245.595 215.36C244.976 215.5 244.383 215.04 244.366 214.405L244.032 202.048C244.01 201.237 244.906 200.734 245.587 201.175L247.374 202.332C247.857 202.644 248.503 202.49 248.792 201.993L250.272 199.455C250.758 198.62 252.028 198.883 252.143 199.843L253.673 212.607Z" fill="white"/>
<path d="M26.5477 200.325C26.6009 200.869 26.3099 201.177 25.8737 201.039L19.5518 199.037C19.0154 198.867 18.502 198.11 18.4871 197.466L18.1981 184.942C18.1791 184.12 18.955 184.065 19.5445 184.847L21.0923 186.898C21.5103 187.452 22.0695 187.621 22.3203 187.269L23.6019 185.471C24.0234 184.88 25.1224 185.778 25.222 186.795L26.5477 200.325Z" fill="white"/>
<path d="M20.2614 147.032C20.2082 146.488 20.4992 146.18 20.9354 146.318L27.2573 148.32C27.7937 148.49 28.3071 149.248 28.322 149.891L28.611 162.415C28.63 163.237 27.8541 163.292 27.2646 162.51L25.7168 160.459C25.2988 159.905 24.7395 159.736 24.4888 160.088L23.2072 161.886C22.7857 162.477 21.6867 161.58 21.5871 160.562L20.2614 147.032Z" fill="white"/>
<path d="M240.369 104.641C240.375 104.124 240.771 103.696 241.285 103.65L248.738 102.975C249.371 102.918 249.898 103.453 249.832 104.085L248.537 116.378C248.452 117.185 247.498 117.565 246.881 117.039L245.262 115.657C244.824 115.283 244.164 115.351 243.811 115.805L242.011 118.126C241.418 118.89 240.195 118.462 240.207 117.496L240.369 104.641Z" fill="white"/>
<path d="M16.1392 108.179L16.3778 144.722C16.3851 145.83 17.2853 146.725 18.3933 146.725H68.7566" stroke="#232323" stroke-width="1.00773" stroke-linecap="round"/>
</g>
<path d="M213.769 128.334V222.052L112.059 202.402" stroke="#231F20" stroke-width="1.00773"/>
<path d="M197.669 193.305C196.98 196.443 196.747 203.4 201.329 206.116C205.91 208.832 213.804 206.262 217.178 204.638C231.523 210.804 261.554 226.534 266.921 240.126" stroke="#232323" stroke-width="2.14085" stroke-linecap="round"/>
<path d="M224.454 142.251C226.584 145.618 258.32 176.455 273.922 191.454L266.91 231.014L251.39 227.902C237.2 222.707 231.576 211.495 230.537 206.538L216.273 199.78L210.128 201.646C208.472 202.29 204.516 202.864 201.935 200.012C199.354 197.16 199.711 192.555 200.212 190.61C191.783 191.108 188.534 182.184 187.963 177.66C185.626 178.229 180.107 178.441 176.729 174.729C173.35 171.017 175.655 162.017 177.229 157.981L176.849 157.614C174.922 161.675 172.37 162.613 171.334 162.575C166.367 162.866 163.032 153.321 164.247 147.431C165.462 141.542 176.857 129.599 183.933 128.349C195.541 126.298 218.068 132.16 224.454 142.251Z" fill="#D4D4D4"/>
<path fill-rule="evenodd" clip-rule="evenodd" d="M166.01 143.422C167.567 140.863 169.956 137.988 172.625 135.434C182.884 130.824 200.062 138.74 195.005 146.33L194.451 148.834C193.484 148.219 192.318 147.456 191.034 146.617C185.174 142.785 176.87 137.356 173.983 137.035C169.583 136.545 170.56 144.862 173.494 151.712C175.841 157.191 189.139 168.998 195.494 174.216L200.872 184.001L207.228 195.254C206.876 196.487 204.993 197.786 200.439 197.426C199.556 194.883 199.845 192.034 200.212 190.61C191.782 191.108 188.533 182.184 187.962 177.66C185.626 178.23 180.107 178.441 176.729 174.729C173.35 171.017 175.654 162.017 177.229 157.981L176.848 157.614C174.922 161.676 172.369 162.614 171.334 162.575C167.43 162.804 164.535 156.958 164.064 151.585C164.579 148.78 165.256 146.038 166.01 143.422Z" fill="#969696"/>
<path d="M186.829 170.762C186.594 171.511 186.496 172.33 186.701 173.109C187.078 174.542 190.214 175 192.814 175.078C193.85 175.109 194.501 174.03 194.058 173.092C193.961 172.885 193.816 172.704 193.635 172.563L190.384 170.034C189.145 169.07 187.3 169.261 186.83 170.759L186.829 170.762Z" fill="#EFEFEF"/>
<path d="M182.296 143.406C180.97 142.037 179.308 140.699 177.86 140.511C175.229 140.168 170.693 143.623 174.782 149.258C175.618 150.41 177.237 150.531 178.406 149.72L181.766 147.389C183.114 146.454 183.438 144.584 182.296 143.406Z" fill="#EFEFEF"/>
<path d="M194.09 147.924C194.434 145.751 195.137 141.318 195.2 140.972" stroke="#232323" stroke-width="2.93541" stroke-linecap="round"/>
<path d="M182.75 162.856C181.754 163.42 179.613 164.552 179.016 164.563" stroke="#232323" stroke-width="2.93541" stroke-linecap="round"/>
<path d="M177.111 157.81C176.365 159.463 174.108 162.72 171.046 162.523C167.219 162.276 161.104 151.63 165.922 143.115C170.739 134.6 179.517 128.89 186.227 128.02" stroke="#232323" stroke-width="2.93541" stroke-linecap="round"/>
<path d="M176.993 157.64C175.275 162.743 173.131 173.213 177.988 176.001C182.844 178.788 192.252 176.997 196.349 175.753" stroke="#232323" stroke-width="2.93541" stroke-linecap="round"/>
<path d="M187.989 177.515C187.944 182.425 191.065 191.783 203.908 189.938" stroke="#232323" stroke-width="2.93541" stroke-linecap="round"/>
<path d="M211.106 158.358C196.155 158.368 185.975 138.083 176.606 138.12C170.386 138.144 167.551 148.924 178.068 158.282C186.482 165.768 193.91 172.777 196.572 175.346C198.253 180.866 204.494 193.442 216.011 199.583" stroke="#232323" stroke-width="2.93541" stroke-linecap="round"/>
<path d="M164.258 113.71C165.475 112.388 167.532 112.303 168.854 113.521L173.879 118.151C174.908 119.099 175.162 120.626 174.495 121.856C170.464 129.286 164.697 135.63 157.685 140.347L157.17 140.693C155.942 141.52 154.307 141.395 153.217 140.391L148.299 135.86C146.978 134.642 146.892 132.583 148.109 131.261L164.258 113.71Z" fill="#232323"/>
<ellipse cx="51.7277" cy="51.7611" rx="51.7277" ry="51.7611" transform="matrix(0.983964 0.178367 -0.178129 0.984007 85.0039 35.4717)" fill="#232323"/>
<path d="M177.244 136.925L165.655 126.88L153.377 131.363L170.658 149.429C169.873 145.192 170.912 140.906 171.848 139.31L177.244 136.925Z" fill="#232323"/>
<ellipse cx="40.4448" cy="40.4709" rx="40.4448" ry="40.4709" transform="matrix(0.983964 0.178367 -0.178129 0.984007 94.2344 48.7957)" fill="#999999"/>
<path d="M122.495 77.8311C126.553 75.3982 132.235 76.4283 135.182 80.1309C138.132 83.8341 137.232 88.8083 133.171 91.2406C132.467 91.6663 131.708 91.9832 130.928 92.2002C128.504 92.8768 126.05 94.404 125.601 96.8821L125.195 99.1268M122.627 113.432L122.503 114.115" stroke="white" stroke-width="8.33754" stroke-linecap="round" stroke-linejoin="round"/>
<path d="M177.785 59.9872L183.822 49.7572" stroke="white" stroke-width="1.90476" stroke-linecap="round"/>
<path d="M181.595 64.4484L190.875 56.9398" stroke="white" stroke-width="1.90476" stroke-linecap="round"/>
<path d="M185.123 69.4501L196.766 66.5679" stroke="white" stroke-width="1.90476" stroke-linecap="round"/>
<path d="M68.1801 113.264L56.6823 116.226" stroke="white" stroke-width="1.90476" stroke-linecap="round"/>
<path d="M68.6376 107.414L56.77 106.157" stroke="white" stroke-width="1.90476" stroke-linecap="round"/>
<path d="M69.678 101.381L59.408 95.1803" stroke="white" stroke-width="1.90476" stroke-linecap="round"/>
</g>
</svg>
