<svg width="284" height="381" viewBox="0 0 284 381" fill="none" xmlns="http://www.w3.org/2000/svg">
<path d="M91.1427 26.5334V121.151C91.1427 123.261 92.8487 124.967 94.9588 124.967H221.004C223.114 124.967 224.82 123.261 224.82 121.151V23.2336C224.82 21.101 223.046 19.3725 220.914 19.4399L94.8691 22.7397C92.8038 22.7846 91.1651 24.4907 91.1651 26.5334H91.1427Z" fill="#E8E8EA"/>
<g opacity="0.36">
<path d="M133.726 102.587C133.726 102.856 130.74 103.08 127.059 103.08C123.378 103.08 120.392 102.856 120.392 102.587C120.392 102.317 123.378 102.093 127.059 102.093C130.74 102.093 133.726 102.317 133.726 102.587Z" fill="#251A51"/>
</g>
<g opacity="0.36">
<path d="M118.394 102.587C118.394 102.856 115.409 103.08 111.727 103.08C108.046 103.08 105.06 102.856 105.06 102.587C105.06 102.317 108.046 102.093 111.727 102.093C115.409 102.093 118.394 102.317 118.394 102.587Z" fill="#251A51"/>
</g>
<path d="M213.528 43.1003C213.528 43.1003 211.912 42.2922 208.859 41.3269C205.829 40.3841 201.137 39.4862 195.48 40.3392C192.674 40.7881 189.621 41.6412 186.658 43.1676C183.672 44.6716 180.822 46.894 177.993 49.4081C175.142 51.9223 172.336 54.7732 169.059 57.3996C165.804 59.9811 162.055 62.4503 157.678 63.5727C155.5 64.1339 153.211 64.291 151.033 63.9768C148.856 63.685 146.768 62.9666 144.883 62.0687C141.066 60.2729 137.789 57.8934 134.557 55.9404C131.347 53.9201 128.114 52.3263 124.859 51.5856C121.604 50.7999 118.461 50.6428 115.633 50.8672C109.931 51.3611 105.599 53.3814 102.883 55.0201C100.144 56.6812 98.8645 57.9383 98.7747 57.871C98.7522 57.8485 99.0665 57.5342 99.6951 56.9506C100.324 56.3669 101.311 55.5813 102.658 54.6834C105.352 52.9324 109.707 50.755 115.543 50.1714C118.439 49.8795 121.671 49.9918 125.039 50.7774C128.406 51.4958 131.773 53.1345 135.028 55.1548C138.305 57.1302 141.583 59.4648 145.287 61.1932C148.946 62.9666 153.278 63.7523 157.453 62.6075C161.629 61.5524 165.265 59.1729 168.475 56.6363C171.685 54.0548 174.514 51.2264 177.41 48.7122C180.283 46.1981 183.224 43.9308 186.321 42.4268C189.397 40.8779 192.539 40.0474 195.413 39.6433C201.227 38.8576 205.963 39.8902 209.016 40.9677C210.543 41.5065 211.687 42.0452 212.451 42.4493C213.191 42.8534 213.573 43.0778 213.573 43.1227L213.528 43.1003Z" fill="#353584"/>
<g opacity="0.59">
<path d="M133.232 65.3237H120.908V98.6588H133.232V65.3237Z" fill="url(#paint0_linear_47_943)"/>
<path d="M185.536 65.3237H173.212V98.6588H185.536V65.3237Z" fill="url(#paint1_linear_47_943)"/>
<path d="M202.978 45.7485H190.654V98.6806H202.978V45.7485Z" fill="url(#paint2_linear_47_943)"/>
<path d="M117.272 88.1748H104.948V99.3987H117.272V88.1748Z" fill="url(#paint3_linear_47_943)"/>
<path d="M150.674 80.3857H138.35V98.6808H150.674V80.3857Z" fill="url(#paint4_linear_47_943)"/>
<path d="M168.094 76.188H155.77V98.6807H168.094V76.188Z" fill="url(#paint5_linear_47_943)"/>
</g>
<path d="M49.2549 80.5877V113.878H65.5745V107.413C65.5745 107.413 73.7231 108.423 74.4189 106.044C75.0924 103.664 74.4189 76.1431 74.4189 76.1431L49.2773 80.5653L49.2549 80.5877Z" fill="#F0BFAC"/>
<path d="M31.925 115.944L27.8395 196.801L87.9773 193.052C87.9773 193.052 84.5877 116.931 80.1654 113.878C75.7432 110.825 34.9779 111.162 31.925 115.921V115.944Z" fill="url(#paint6_linear_47_943)"/>
<path d="M77.1127 113.9C77.1127 113.9 109.393 109.815 111.099 108.131C112.805 106.448 132.851 76.188 132.851 76.188C132.851 76.188 145.758 79.2409 145.085 83.9998C145.085 83.9998 122.996 122.745 120.617 123.082C118.237 123.418 84.947 144.25 84.947 144.25L77.1351 113.9H77.1127Z" fill="url(#paint7_linear_47_943)"/>
<path d="M33.4516 114.844C33.4516 114.844 17.4687 115.315 12.0363 142.051C6.60394 168.786 1.17156 178.641 12.0363 182.389C22.9011 186.116 32.419 186.116 32.419 186.116L33.4516 114.844Z" fill="url(#paint8_linear_47_943)"/>
<path d="M31.274 196.598L0.655151 380.962H21.0378C21.0378 380.962 58.4135 209.37 59.7828 217.519C61.1521 225.668 60.4562 381.299 61.8256 380.962C63.1949 380.625 82.8816 380.962 82.8816 380.962C82.8816 380.962 86.2039 193.163 86.2713 193.163C86.3386 193.163 31.274 196.575 31.274 196.575V196.598Z" fill="#F06543"/>
<path d="M49.255 105.684C49.255 105.684 62.5217 107.211 64.9012 102.317L66.4276 98.0968C66.4276 98.0968 63.891 98.0968 64.4073 94.0562C64.9236 90.0155 68.1112 89.6788 70.1315 91.1828L71.658 85.7954C71.658 85.7954 77.5617 82.0915 77.8985 79.7344C78.2352 77.3774 78.2352 69.1166 73.3416 70.6206C68.4479 72.1246 67.2807 72.6409 65.0808 72.8205C62.8809 73.0001 46.696 73.0001 46.5388 82.0915C46.5388 82.0915 43.3288 80.7446 44.1818 86.3116C45.0348 91.8787 48.8285 96.5928 49.2775 105.707L49.255 105.684Z" fill="#251A51"/>
<path d="M134.646 76.6597C134.646 76.6597 134.467 70.4641 135.297 69.2743C136.128 68.0622 148.16 58.9034 148.991 60.1156C149.821 61.3278 144.479 64.3807 145.107 65.6602C145.107 65.6602 146.768 65.9296 146.207 67.6132L145.848 69.005C145.848 69.005 146.858 68.5336 147.15 69.0947C147.442 69.6559 146.97 72.3272 146.97 72.3272C146.97 72.3272 147.981 70.5763 148.183 71.6763C148.362 72.7762 148.519 76.7046 146.432 79.1738L144.344 81.6431L134.669 76.6597H134.646Z" fill="#F0BFAC"/>
<g opacity="0.36">
<path d="M205.424 102.587C205.424 102.856 202.057 103.08 197.904 103.08C193.752 103.08 190.384 102.856 190.384 102.587C190.384 102.317 193.752 102.093 197.904 102.093C202.057 102.093 205.424 102.317 205.424 102.587Z" fill="#251A51"/>
</g>
<g opacity="0.36">
<path d="M187.107 102.587C187.107 102.856 183.74 103.08 179.587 103.08C175.434 103.08 172.067 102.856 172.067 102.587C172.067 102.317 175.434 102.093 179.587 102.093C183.74 102.093 187.107 102.317 187.107 102.587Z" fill="#251A51"/>
</g>
<g opacity="0.36">
<path d="M168.116 102.587C168.116 102.856 165.131 103.08 161.449 103.08C157.768 103.08 154.782 102.856 154.782 102.587C154.782 102.317 157.768 102.093 161.449 102.093C165.131 102.093 168.116 102.317 168.116 102.587Z" fill="#251A51"/>
</g>
<g opacity="0.36">
<path d="M150.091 102.587C150.091 102.856 147.105 103.08 143.423 103.08C139.742 103.08 136.756 102.856 136.756 102.587C136.756 102.317 139.742 102.093 143.423 102.093C147.105 102.093 150.091 102.317 150.091 102.587Z" fill="#251A51"/>
</g>
<path d="M19.6011 33.7397L21.801 56.8834L54.7095 53.2244L57.9196 63.6178L61.0174 51.6531L77.1125 50.2389L73.0045 19.3955L19.6011 33.7397Z" fill="#E8E8EA"/>
<path d="M111.121 0L109.258 33.7391H149.08L150.674 41.955L152.829 33.7391H183.448L185.536 2.3346L111.121 0Z" fill="#EDC483"/>
<path d="M132.491 15.7806C132.491 19.6865 129.326 22.8292 125.443 22.8292C121.559 22.8292 118.394 19.664 118.394 15.7806C118.394 11.8971 121.559 8.73193 125.443 8.73193C129.326 8.73193 132.491 11.8971 132.491 15.7806Z" fill="white"/>
<path d="M138.35 10.8422C150.54 11.6279 162.774 11.3585 174.963 12.4585C175.838 12.5258 175.861 11.1116 174.963 11.0667C162.796 10.5728 150.54 9.47291 138.35 10.1912C137.924 10.2137 137.924 10.8198 138.35 10.8422Z" fill="white"/>
<path d="M138.35 15.9375C150.54 16.7231 162.774 16.4538 174.963 17.5537C175.838 17.6211 175.861 16.2068 174.963 16.1619C162.796 15.6681 150.54 14.5681 138.35 15.2865C137.924 15.3089 137.924 15.915 138.35 15.9375Z" fill="white"/>
<path d="M138.35 21.7065C150.54 22.4921 162.774 22.2228 174.963 23.3227C175.838 23.3901 175.861 21.9759 174.963 21.931C162.796 21.4371 150.54 20.3372 138.35 21.0555C137.924 21.0779 137.924 21.684 138.35 21.7065Z" fill="white"/>
<g opacity="0.48">
<path d="M129.708 22.5153C131.145 21.8643 129.102 19.3277 127.89 18.3175C126.677 17.3074 124.949 16.9258 123.423 17.3074C121.896 17.689 120.572 18.8563 119.966 20.3154C119.966 20.3154 122.951 25.5682 129.708 22.5153Z" fill="#EDC483"/>
</g>
<path opacity="0.48" d="M128.002 13.6709C128.002 15.0851 126.857 16.2299 125.443 16.2299C124.029 16.2299 122.884 15.0851 122.884 13.6709C122.884 12.2567 124.029 11.1118 125.443 11.1118C126.857 11.1118 128.002 12.2567 128.002 13.6709Z" fill="#EDC483"/>
<path d="M29.7925 41.1024C42.7 39.2617 55.5177 36.9944 68.2232 34.0538C68.8517 33.9191 68.5823 32.9538 67.9538 33.0885C55.2259 35.8272 42.4755 38.4087 29.6353 40.5412C29.2762 40.6085 29.4333 41.1473 29.7925 41.1024Z" fill="#353584"/>
<path d="M29.7925 45.5468C42.7 43.706 55.5177 41.4388 68.2232 38.4981C68.8517 38.3634 68.5823 37.3982 67.9538 37.5329C55.2259 40.2715 42.4755 42.853 29.6353 44.9856C29.2762 45.0529 29.4333 45.5917 29.7925 45.5468Z" fill="#353584"/>
<path d="M76.2819 25.3885C76.2819 26.915 75.0473 28.1496 73.5208 28.1496C71.9944 28.1496 70.7598 26.915 70.7598 25.3885C70.7598 23.8621 71.9944 22.6274 73.5208 22.6274C75.0473 22.6274 76.2819 23.8621 76.2819 25.3885Z" fill="#DB5E77"/>
<path d="M238.513 134.351H113.747C111.268 134.351 109.258 136.361 109.258 138.841V181.626C109.258 184.106 111.268 186.116 113.747 186.116H238.513C240.992 186.116 243.002 184.106 243.002 181.626V138.841C243.002 136.361 240.992 134.351 238.513 134.351Z" fill="#E8E8EA"/>
<path d="M120.437 162.59C128.72 155.653 138.956 153.453 148.811 158.751C153.772 161.4 157.812 165.306 163.537 166.159C173.459 167.663 182.146 160.973 189.441 155.294C190.137 154.755 189.172 153.813 188.476 154.329C179.632 161.22 169.8 168.044 158.284 162.971C152.919 160.614 148.699 156.439 142.862 155.092C134.489 153.162 125.779 155.945 119.853 162.006C119.471 162.388 120.033 162.926 120.437 162.59Z" fill="url(#paint9_linear_47_943)"/>
<path d="M192.09 152.421C192.764 153.005 193.28 153.813 192.966 154.756C192.674 155.632 191.597 156.193 190.721 155.856C189.913 155.564 189.374 154.554 189.599 153.723C189.891 152.668 190.901 152.601 191.799 152.444C192.36 152.354 192.225 151.591 191.799 151.434C190.407 150.918 188.836 152.242 188.476 153.521C188.072 154.958 188.97 156.597 190.384 157.023C191.754 157.427 193.415 156.687 193.954 155.34C194.492 154.015 193.819 152.287 192.427 151.815C192.09 151.703 191.821 152.175 192.09 152.421Z" fill="#A1E0DC"/>
<path d="M166.971 164.789C167.443 164.857 168.094 165.193 168.071 165.754C168.049 166.203 167.51 166.495 167.128 166.405C166.186 166.203 166.882 165.193 167.196 164.767C167.532 164.295 166.971 163.779 166.5 163.869C164.188 164.34 165.355 168.224 167.735 167.64C168.745 167.393 169.485 166.473 169.283 165.418C169.081 164.34 167.937 163.487 166.859 163.891C166.365 164.071 166.477 164.722 166.971 164.767V164.789Z" fill="#A1E0DC"/>
<path d="M120.886 172.804C125.69 172.871 130.493 172.939 135.275 172.894C135.881 172.894 135.881 171.951 135.275 171.951C130.471 171.906 125.667 171.973 120.886 172.041C120.392 172.041 120.392 172.804 120.886 172.804Z" fill="#353584"/>
<path d="M118.484 177.225C143.715 177.786 169.037 177.831 194.268 177.584C195.188 177.584 195.188 176.148 194.268 176.148C169.037 175.923 143.715 175.968 118.484 176.529C118.035 176.529 118.035 177.225 118.484 177.225Z" fill="#353584"/>
<path opacity="0.54" d="M213.348 151.859H205.963V174.038H213.348V151.859Z" fill="url(#paint10_linear_47_943)"/>
<path opacity="0.54" d="M222.687 159.851H215.302V174.061H222.687V159.851Z" fill="url(#paint11_linear_47_943)"/>
<path opacity="0.54" d="M232.048 165.126H224.662V174.038H232.048V165.126Z" fill="url(#paint12_linear_47_943)"/>
<path d="M279.165 45.7485H236.537C234.057 45.7485 232.047 47.7586 232.047 50.2381V113.81C232.047 116.29 234.057 118.3 236.537 118.3H279.165C281.645 118.3 283.655 116.29 283.655 113.81V50.2381C283.655 47.7586 281.645 45.7485 279.165 45.7485Z" fill="#E8E8EA"/>
<path d="M261.207 60.0696C254.248 58.5207 246.616 62.3144 244.641 69.4752C242.755 76.3667 247.312 84.4031 254.226 86.2887C260.983 88.1294 268.705 83.9541 270.95 77.332C273.441 69.9691 268.705 62.045 261.589 59.7104C260.758 59.4411 260.444 60.6981 261.23 60.9899C267.291 63.2123 271.646 69.7671 269.85 76.3218C268.121 82.5623 260.803 86.7376 254.563 85.0765C248.547 83.4827 244.686 77.0402 245.449 71.0241C246.392 63.6612 254.181 59.2615 261.095 60.4737C261.342 60.5185 261.454 60.1369 261.207 60.0696Z" fill="#353584"/>
<path d="M254.293 86.0644C261.409 88.2419 269.58 84.1564 271.713 76.8159C273.89 69.3408 269.042 61.2596 261.769 59.0372C260.085 58.5209 259.479 61.0126 261.05 61.6187C267.223 64.0431 271.309 70.7101 268.862 77.2873C266.685 83.1238 260.309 85.9297 254.383 85.2563C253.912 85.2114 253.845 85.9297 254.271 86.0644H254.293Z" fill="url(#paint13_linear_47_943)"/>
<path d="M247.918 94.2135C255.214 94.3706 262.532 94.6849 269.827 94.4379C270.568 94.4155 270.568 93.2931 269.827 93.2706C262.532 93.0237 255.214 93.338 247.918 93.4951C247.469 93.4951 247.469 94.191 247.918 94.2135Z" fill="#353584"/>
<path d="M240.084 99.8475C252.408 100.431 264.889 100.611 277.213 100.252C277.976 100.229 277.976 99.0843 277.213 99.0619C264.889 98.7027 252.408 98.8823 240.084 99.4659C239.837 99.4659 239.837 99.8475 240.084 99.8475Z" fill="#353584"/>
<path d="M242.104 104.966C253.822 105.504 265.966 105.886 277.662 105.123C278.335 105.078 278.335 104.113 277.662 104.068C265.966 103.305 253.822 103.686 242.104 104.225C241.633 104.225 241.633 104.943 242.104 104.966Z" fill="#353584"/>
<path d="M70.1763 211.728C70.2436 212.02 64.7439 213.546 58.2116 216.128C51.6568 218.687 46.5836 221.291 46.4489 221.021C46.3815 220.909 47.5713 220.101 49.614 219.001C51.6568 217.901 54.5526 216.487 57.8524 215.207C61.1522 213.905 64.2276 212.963 66.4724 212.401C68.7171 211.818 70.1538 211.616 70.1763 211.728Z" fill="#4A4182"/>
<path d="M76.0576 216.375C76.0576 216.375 76.1025 216.913 76.1025 217.968C76.1025 219.091 76.08 220.617 76.0576 222.525C75.9678 226.588 75.8555 232.268 75.7209 239.271C75.429 253.503 75.025 272.988 74.576 294.516C74.2618 316.043 73.9924 335.55 73.7904 349.76C73.7006 356.763 73.6108 362.443 73.5659 366.506C73.521 368.414 73.4761 369.918 73.4536 371.063C73.4087 372.095 73.3863 372.656 73.3414 372.656C73.2965 372.656 73.2741 372.118 73.2516 371.063C73.2516 369.94 73.2067 368.414 73.1618 366.506C73.1618 362.443 73.1169 356.763 73.072 349.76C73.072 335.617 73.1843 316.088 73.5659 294.493C73.9475 272.921 74.4862 253.391 75.0025 239.249C75.2719 232.268 75.4964 226.566 75.676 222.503C75.7658 220.595 75.8556 219.091 75.9229 217.946C75.9903 216.913 76.0351 216.352 76.08 216.352L76.0576 216.375Z" fill="#4A4182"/>
<path d="M10.5771 371.804C10.5771 371.804 10.622 371.288 10.8241 370.3C11.0485 369.245 11.3404 367.831 11.6995 366.057C12.5077 362.286 13.675 356.989 15.0667 350.479C17.9176 337.324 21.846 319.164 25.8417 299.028C29.8374 278.892 33.1597 260.597 35.5167 247.353C36.6615 240.798 37.6044 235.456 38.2778 231.662C38.6145 229.889 38.8614 228.475 39.0635 227.397C39.243 226.432 39.3777 225.916 39.4002 225.916C39.4451 225.916 39.4002 226.432 39.2655 227.419C39.1084 228.497 38.9063 229.911 38.6594 231.707C38.1207 235.433 37.2901 240.821 36.2126 247.465C34.0576 260.755 30.8251 279.072 26.8294 299.23C22.8112 319.366 18.7931 337.526 15.7626 350.658C14.2361 357.123 12.9791 362.398 12.0812 366.17C11.6322 367.921 11.2955 369.312 11.0261 370.367C10.7792 371.333 10.622 371.827 10.5996 371.827L10.5771 371.804Z" fill="#4A4182"/>
<g opacity="0.36">
<path d="M28.1089 195.252C27.8395 195.252 27.8395 183.107 28.1089 168.157C28.3783 153.184 28.8272 141.063 29.119 141.085C29.3884 141.085 29.3884 153.229 29.119 168.18C28.8497 183.13 28.4007 195.274 28.1089 195.252Z" fill="#251A51"/>
</g>
<g opacity="0.36">
<path d="M28.6026 150.175C28.3781 150.333 26.919 148.559 25.7742 145.978C24.6293 143.419 24.2702 141.129 24.5171 141.084C24.7865 141.017 25.5497 143.104 26.6721 145.574C27.772 148.065 28.8271 150.018 28.6026 150.175Z" fill="#251A51"/>
</g>
<g opacity="0.36">
<path d="M142.974 86.1771C142.907 86.424 139.697 85.5934 136.352 83.3711C132.985 81.1488 130.965 78.5224 131.167 78.3652C131.391 78.1632 133.636 80.408 136.891 82.5405C140.124 84.6955 143.064 85.9077 142.974 86.1771Z" fill="#251A51"/>
</g>
<path d="M42.7 141.466C42.5204 141.669 41.1062 140.636 39.5573 139.199C38.0084 137.74 36.9085 136.393 37.088 136.214C37.2676 136.012 38.6818 137.022 40.2308 138.481C41.7797 139.94 42.8796 141.287 42.7 141.489V141.466Z" fill="#B2EAF9"/>
<path d="M52.9811 150.042C53.2056 150.199 52.3526 151.883 51.0731 153.791C49.7935 155.699 48.5589 157.136 48.3344 156.978C48.11 156.821 48.963 155.138 50.2425 153.23C51.522 151.322 52.7567 149.885 52.9811 150.042Z" fill="#B2EAF9"/>
<path d="M40.0512 162.298C39.8043 162.41 38.9961 161.131 38.2778 159.447C37.537 157.764 37.1554 156.305 37.4023 156.192C37.6493 156.08 38.4574 157.36 39.1757 159.043C39.9165 160.727 40.2981 162.186 40.0512 162.298Z" fill="#B2EAF9"/>
<path d="M48.6039 173.904C48.3345 173.904 48.0427 172.938 47.7059 171.749C47.3692 170.559 47.0999 169.571 47.3468 169.436C47.5713 169.302 48.2896 170.177 48.6712 171.479C49.0528 172.781 48.8957 173.881 48.6263 173.904H48.6039Z" fill="#B2EAF9"/>
<path d="M38.2329 179.605C37.9636 179.694 37.4697 178.931 36.7738 178.101C36.0779 177.27 35.427 176.619 35.5616 176.372C35.6739 176.125 36.7289 176.462 37.537 177.45C38.3676 178.437 38.5023 179.515 38.2329 179.582V179.605Z" fill="#B2EAF9"/>
<path d="M43.2838 187.148C43.4634 187.35 42.4981 188.517 40.9268 189.483C39.3554 190.47 37.8963 190.852 37.7841 190.605C37.6718 190.358 38.9065 189.595 40.388 188.652C41.8696 187.709 43.0818 186.946 43.2838 187.148Z" fill="#B2EAF9"/>
<path d="M47.5714 183.87C47.3693 184.05 46.3816 183.242 45.3715 182.052C44.3613 180.862 43.7103 179.762 43.9124 179.583C44.1144 179.403 45.1021 180.211 46.1122 181.401C47.1224 182.591 47.7734 183.691 47.5714 183.87Z" fill="#B2EAF9"/>
<path d="M57.9421 188.562C58.1217 188.764 57.3809 189.662 56.1239 190.201C54.8668 190.762 53.7219 190.695 53.677 190.425C53.6321 190.156 54.5974 189.797 55.7198 189.303C56.8422 188.809 57.7626 188.36 57.9421 188.562Z" fill="#B2EAF9"/>
<path d="M34.1473 186.901C34.08 187.171 33.4514 187.238 32.7107 187.081C31.9699 186.901 31.4311 186.565 31.4985 186.295C31.5658 186.026 32.1944 185.959 32.9351 186.116C33.6759 186.295 34.2147 186.632 34.1473 186.901Z" fill="#B2EAF9"/>
<path d="M63.2847 177.451C63.4194 177.698 62.5889 178.394 61.4665 179.045C60.3216 179.696 59.289 180.01 59.1543 179.763C59.0197 179.516 59.8502 178.82 60.9726 178.169C62.1175 177.518 63.1501 177.204 63.2847 177.451Z" fill="#B2EAF9"/>
<path d="M64.2499 166.383C63.9805 166.45 63.4418 165.328 62.5663 164.093C61.7133 162.836 60.8379 161.938 60.995 161.714C61.1297 161.489 62.4092 162.118 63.3745 163.532C64.3622 164.924 64.4968 166.338 64.2499 166.405V166.383Z" fill="#B2EAF9"/>
<path d="M75.2495 185.711C75.3841 185.936 74.4189 186.811 73.072 187.664C71.7251 188.517 70.5129 189.011 70.3558 188.764C70.2211 188.54 71.1864 187.664 72.5332 186.811C73.8801 185.958 75.0923 185.464 75.227 185.711H75.2495Z" fill="#B2EAF9"/>
<path d="M73.5209 175.969C73.274 175.879 73.5434 174.51 74.1719 172.938C74.778 171.367 75.4739 170.155 75.7432 170.267C75.9902 170.357 75.7208 171.726 75.0922 173.297C74.4861 174.869 73.7903 176.081 73.5209 175.969Z" fill="#B2EAF9"/>
<path d="M84.8346 188.338C84.6325 188.518 83.3081 187.328 82.1408 185.487C80.9735 183.647 80.4797 181.94 80.7266 181.828C80.9735 181.716 81.849 183.198 82.9714 184.949C84.0713 186.722 85.0366 188.136 84.8346 188.316V188.338Z" fill="#B2EAF9"/>
<path d="M84.0715 169.032C84.3409 169.077 84.3185 170.648 84.0267 172.556C83.7348 174.464 83.2634 175.968 82.9941 175.946C82.7247 175.901 82.7471 174.33 83.039 172.422C83.3308 170.514 83.8022 169.01 84.0715 169.032Z" fill="#B2EAF9"/>
<path d="M81.1531 161.063C81.1307 161.332 79.5369 161.4 77.6288 160.951C75.7207 160.502 74.329 159.738 74.4188 159.491C74.5086 159.222 76.0126 159.559 77.8533 159.985C79.6716 160.412 81.1756 160.793 81.1531 161.063Z" fill="#B2EAF9"/>
<path d="M55.8546 163.308C56.1239 163.308 56.3933 164.431 56.4606 165.845C56.528 167.259 56.3484 168.404 56.079 168.404C55.8097 168.404 55.5403 167.281 55.4729 165.867C55.4056 164.453 55.5852 163.308 55.8546 163.308Z" fill="#B2EAF9"/>
<path d="M67.7295 148.268C67.9091 148.47 67.2805 149.346 66.3153 150.244C65.35 151.142 64.4072 151.68 64.2276 151.478C64.048 151.276 64.6766 150.401 65.6419 149.503C66.6071 148.605 67.5499 148.066 67.7295 148.268Z" fill="#B2EAF9"/>
<path d="M80.5021 148.673C80.2328 148.718 79.7389 147.012 79.4022 144.879C79.0655 142.746 79.0206 140.973 79.29 140.928C79.5593 140.883 80.0532 142.589 80.3899 144.722C80.7266 146.854 80.7715 148.628 80.5021 148.673Z" fill="#B2EAF9"/>
<path d="M36.3696 169.033C36.2573 169.28 35.0676 168.988 33.7207 168.36C32.3738 167.731 31.3637 167.035 31.4759 166.788C31.5882 166.541 32.7779 166.833 34.1248 167.462C35.4716 168.09 36.4818 168.786 36.3696 169.033Z" fill="#B2EAF9"/>
<path d="M41.2633 148.291C41.2184 148.56 39.9613 148.582 38.4349 148.336C36.9084 148.089 35.7187 147.685 35.7636 147.415C35.8085 147.146 37.0655 147.123 38.592 147.37C40.096 147.617 41.3082 148.021 41.2633 148.291Z" fill="#B2EAF9"/>
<path d="M52.0606 140.95C52.2402 141.152 51.4321 142.252 50.2199 143.397C49.0077 144.542 47.8853 145.327 47.6833 145.125C47.5037 144.923 48.3118 143.823 49.524 142.679C50.7362 141.534 51.8586 140.748 52.0606 140.95Z" fill="#B2EAF9"/>
<path d="M62.6787 141.13C62.4318 141.22 61.6685 139.851 60.9951 138.055C60.3217 136.259 59.9849 134.71 60.2319 134.62C60.4788 134.531 61.242 135.9 61.9155 137.696C62.5889 139.492 62.9256 141.04 62.6787 141.13Z" fill="#B2EAF9"/>
<path d="M74.3739 139.962C74.1494 140.119 73.1168 139.064 72.0393 137.605C70.9618 136.146 70.2884 134.822 70.4904 134.664C70.7149 134.507 71.7475 135.562 72.825 137.021C73.9025 138.481 74.5759 139.805 74.3739 139.962Z" fill="#B2EAF9"/>
<path d="M83.2409 131.814C83.4429 131.994 82.8143 133.026 81.8266 134.126C80.8389 135.226 79.8737 135.967 79.6717 135.787C79.4696 135.608 80.0982 134.575 81.0859 133.475C82.0736 132.375 83.0388 131.634 83.2409 131.814Z" fill="#B2EAF9"/>
<path d="M92.3099 133.385C92.5343 133.542 92.0629 134.507 91.2773 135.517C90.4916 136.527 89.6835 137.223 89.459 137.044C89.2345 136.886 89.7059 135.921 90.4916 134.911C91.2772 133.901 92.0854 133.227 92.3099 133.385Z" fill="#B2EAF9"/>
<path d="M88.8302 124.855C88.5609 124.9 88.1568 123.643 87.9323 122.071C87.7078 120.5 87.7527 119.198 88.0221 119.153C88.2915 119.108 88.6955 120.365 88.92 121.937C89.1445 123.508 89.0996 124.81 88.8302 124.855Z" fill="#B2EAF9"/>
<path d="M98.1013 124.159C97.9217 124.361 96.8218 123.733 95.6096 122.745C94.4198 121.758 93.5669 120.792 93.7464 120.568C93.926 120.343 95.026 120.994 96.2382 121.982C97.4279 122.97 98.2809 123.935 98.1013 124.159Z" fill="#B2EAF9"/>
<path d="M102.119 127.908C102.299 128.11 101.67 128.985 100.705 129.883C99.7399 130.781 98.7971 131.32 98.6175 131.14C98.4379 130.938 99.0665 130.063 100.032 129.165C100.997 128.267 101.94 127.728 102.119 127.908Z" fill="#B2EAF9"/>
<path d="M101.873 117.155C101.648 117.313 100.75 116.37 99.5381 115.405C98.3259 114.417 97.226 113.743 97.3382 113.474C97.428 113.227 98.8198 113.541 100.167 114.619C101.514 115.696 102.12 117.021 101.895 117.155H101.873Z" fill="#B2EAF9"/>
<path d="M110.852 114.664C111.009 114.889 109.729 116.056 108.293 117.605C106.856 119.154 105.823 120.523 105.577 120.389C105.352 120.254 106.048 118.57 107.574 116.932C109.078 115.293 110.717 114.44 110.852 114.664Z" fill="#B2EAF9"/>
<path d="M115.476 122.117C115.633 122.341 114.533 123.351 113.007 124.361C111.503 125.372 110.133 126.023 109.999 125.798C109.842 125.574 110.942 124.563 112.468 123.553C113.972 122.543 115.341 121.892 115.476 122.117Z" fill="#B2EAF9"/>
<path d="M118.192 110.6C118.417 110.758 117.923 111.925 117.07 113.204C116.217 114.506 115.364 115.427 115.139 115.27C114.915 115.112 115.409 113.945 116.262 112.666C117.115 111.364 117.968 110.443 118.192 110.6Z" fill="#B2EAF9"/>
<path d="M120.437 107.144C120.257 107.346 119.292 106.695 118.641 105.483C117.968 104.27 117.945 103.126 118.192 103.081C118.462 103.013 118.91 103.934 119.494 105.011C120.078 106.089 120.617 106.964 120.437 107.144Z" fill="#B2EAF9"/>
<path d="M124.657 110.982C124.859 111.161 124.186 112.284 123.153 113.496C122.121 114.708 121.11 115.561 120.886 115.382C120.684 115.202 121.357 114.08 122.39 112.868C123.423 111.655 124.433 110.802 124.635 110.982H124.657Z" fill="#B2EAF9"/>
<path d="M125.443 102.722C125.218 102.857 124.388 101.914 123.894 100.5C123.4 99.0855 123.445 97.8284 123.714 97.7836C123.984 97.7387 124.365 98.8386 124.837 100.163C125.286 101.487 125.69 102.587 125.443 102.722Z" fill="#B2EAF9"/>
<path d="M125.533 92.2832C125.376 92.0588 126.027 91.3629 126.992 90.7568C127.957 90.1283 128.833 89.814 128.99 90.0609C129.147 90.2854 128.496 90.9813 127.531 91.5874C126.565 92.2159 125.69 92.5302 125.533 92.2832Z" fill="#B2EAF9"/>
<path d="M131.167 99.9824C130.942 99.8477 131.571 98.3662 132.581 96.6826C133.591 94.999 134.601 93.7419 134.848 93.8766C135.073 94.0113 134.444 95.4928 133.434 97.1764C132.424 98.86 131.414 100.117 131.167 99.9824Z" fill="#B2EAF9"/>
<path d="M133.053 90.8684C133.255 91.048 132.536 92.1255 131.481 93.2479C130.404 94.3703 129.394 95.1335 129.192 94.9315C128.99 94.7519 129.708 93.6744 130.763 92.552C131.841 91.4296 132.851 90.6664 133.053 90.8684Z" fill="#B2EAF9"/>
<path d="M136.105 86.3794C135.993 86.6264 134.759 86.1999 133.614 85.1448C132.469 84.0898 131.975 82.8776 132.199 82.7429C132.424 82.5858 133.255 83.4388 134.287 84.4041C135.32 85.3693 136.24 86.1101 136.105 86.357V86.3794Z" fill="#B2EAF9"/>
<path d="M137.722 90.8692C137.453 90.8468 137.408 89.6122 138.081 88.3326C138.755 87.0531 139.787 86.4021 139.967 86.6041C140.169 86.8062 139.54 87.6816 138.957 88.804C138.35 89.9264 137.991 90.9141 137.699 90.8692H137.722Z" fill="#B2EAF9"/>
<path d="M81.6695 121.016C81.4001 120.949 81.5123 119.714 81.8939 118.233C82.2755 116.774 82.8143 115.651 83.0612 115.719C83.3306 115.786 83.2184 117.021 82.8368 118.502C82.4551 119.984 81.9164 121.106 81.6695 121.016Z" fill="#B2EAF9"/>
<path d="M79.3125 127.1C79.1104 127.279 77.9431 126.336 76.7085 124.99C75.4739 123.643 74.6433 122.408 74.8453 122.206C75.0474 122.026 76.2147 122.969 77.4493 124.316C78.6839 125.663 79.5145 126.898 79.3125 127.1Z" fill="#B2EAF9"/>
<path d="M69.1887 125.304C69.4131 125.438 69.0989 126.381 68.4703 127.391C67.8418 128.402 67.1459 129.097 66.9214 128.963C66.697 128.828 67.0112 127.885 67.6398 126.875C68.2683 125.865 68.9642 125.169 69.1887 125.304Z" fill="#B2EAF9"/>
<path d="M59.5806 129.546C59.5133 129.815 58.144 129.658 56.64 128.962C55.1359 128.266 54.1258 127.324 54.2829 127.099C54.4401 126.875 55.6298 127.413 57.044 128.064C58.4582 128.715 59.648 129.277 59.5582 129.546H59.5806Z" fill="#B2EAF9"/>
<path d="M64.4521 121.196C64.4521 121.465 63.1052 121.6 61.4665 121.487C59.8278 121.375 58.5258 121.061 58.5483 120.791C58.5483 120.522 59.8951 120.387 61.5338 120.5C63.1725 120.612 64.4745 120.926 64.4521 121.196Z" fill="#B2EAF9"/>
<path d="M73.4088 116.908C73.2741 117.155 71.6579 116.549 69.6376 116.055C67.5948 115.562 65.8888 115.36 65.8888 115.09C65.8888 114.821 67.7071 114.574 69.8845 115.09C72.062 115.606 73.566 116.684 73.4313 116.908H73.4088Z" fill="#B2EAF9"/>
<path d="M52.0383 117.515C52.0383 117.223 53.9913 116.931 56.3034 116.258C58.638 115.607 60.4563 114.844 60.591 115.091C60.7257 115.315 59.0196 116.527 56.5728 117.201C54.126 117.897 52.0383 117.762 52.0383 117.492V117.515Z" fill="#B2EAF9"/>
<path d="M47.5712 127.301C47.3242 127.167 47.7732 125.842 48.5589 124.316C49.3446 122.789 50.1751 121.667 50.4221 121.801C50.669 121.936 50.22 123.261 49.4343 124.765C48.6487 126.291 47.8181 127.413 47.5712 127.279V127.301Z" fill="#B2EAF9"/>
<path d="M51.6342 132.15C51.7465 132.397 50.669 133.182 49.2099 133.901C47.7507 134.619 46.4712 135.023 46.3365 134.776C46.2243 134.529 47.3018 133.744 48.7609 133.025C50.22 132.307 51.4995 131.903 51.6342 132.15Z" fill="#B2EAF9"/>
<path d="M36.5942 130.579C36.7738 130.803 35.6514 131.926 34.2596 133.25C32.8679 134.575 31.6781 135.607 31.4537 135.428C31.2516 135.248 32.1271 133.901 33.5638 132.532C35.0004 131.162 36.4146 130.377 36.5718 130.579H36.5942Z" fill="#B2EAF9"/>
<path d="M41.4654 118.547C41.7348 118.547 41.9143 119.76 41.8694 121.219C41.8021 122.678 41.5552 123.868 41.2634 123.845C40.994 123.845 40.8144 122.633 40.8593 121.174C40.9266 119.715 41.1736 118.547 41.4654 118.547Z" fill="#B2EAF9"/>
<path d="M36.5943 123.823C36.4596 124.048 34.9332 123.374 33.1822 122.274C32.0374 121.556 31.0721 120.838 30.6007 120.389L30.915 120.007C31.0721 120.321 31.1395 120.523 31.0721 120.568C31.0048 120.636 30.8252 120.546 30.5334 120.321L29.3661 119.423L30.8701 119.94C31.4762 120.142 32.5537 120.703 33.6985 121.421C35.427 122.499 36.729 123.576 36.5943 123.801V123.823Z" fill="#B2EAF9"/>
<path d="M21.1052 127.907C20.9257 127.705 21.7113 126.628 22.9011 125.506C24.0908 124.383 25.1908 123.62 25.3703 123.822C25.5499 124.024 24.7642 125.102 23.5745 126.224C22.3848 127.346 21.2848 128.087 21.1052 127.907Z" fill="#B2EAF9"/>
<path d="M29.9271 130.894C30.0393 131.141 28.8496 131.949 27.2782 132.712C25.6844 133.475 24.3151 133.879 24.1804 133.632C24.0682 133.385 25.2579 132.577 26.8517 131.814C28.4455 131.051 29.8148 130.647 29.9495 130.894H29.9271Z" fill="#B2EAF9"/>
<path d="M20.0726 141.691C19.8033 141.781 19.1523 140.411 18.6135 138.638C18.0748 136.865 17.8503 135.361 18.0972 135.293C18.3666 135.203 19.0176 136.573 19.5563 138.346C20.0951 140.12 20.3196 141.624 20.0726 141.691Z" fill="#B2EAF9"/>
<path d="M17.783 150.962C17.581 151.142 16.6157 150.379 15.6504 149.256C14.6852 148.134 14.0791 147.079 14.2811 146.922C14.4831 146.742 15.4484 147.505 16.3912 148.628C17.3565 149.75 17.9626 150.805 17.7605 150.962H17.783Z" fill="#B2EAF9"/>
<path d="M26.7171 153.925C26.964 154.06 26.56 155.294 25.8192 156.686C25.0784 158.078 24.2927 159.133 24.0458 158.998C23.7989 158.864 24.2029 157.629 24.9437 156.237C25.6845 154.846 26.4702 153.79 26.7171 153.925Z" fill="#B2EAF9"/>
<path d="M18.6808 164.947C18.4114 165.014 17.8726 163.847 17.4686 162.32C17.0645 160.794 16.9523 159.514 17.2217 159.447C17.491 159.38 18.0298 160.547 18.4338 162.074C18.8379 163.578 18.9501 164.879 18.6808 164.947Z" fill="#B2EAF9"/>
<path d="M15.4706 164.206C15.6502 164.408 14.842 165.44 13.6523 166.495C12.4626 167.551 11.3626 168.246 11.183 168.044C11.0035 167.842 11.8116 166.81 13.0013 165.755C14.1911 164.7 15.291 164.004 15.4706 164.206Z" fill="#B2EAF9"/>
<path d="M11.2282 159.694C10.9813 159.581 11.2731 158.302 11.6772 156.753C12.0812 155.204 12.4628 153.925 12.7322 153.969C13.0016 153.992 13.0689 155.384 12.6424 157.022C12.2159 158.661 11.4751 159.828 11.2282 159.716V159.694Z" fill="#B2EAF9"/>
<path d="M14.1913 179.201C14.079 179.448 12.7322 178.976 11.4527 177.854C10.1507 176.731 9.52213 175.474 9.72416 175.317C9.94863 175.16 10.8914 176.058 12.1036 177.091C13.2934 178.123 14.326 178.954 14.1913 179.201Z" fill="#B2EAF9"/>
<path d="M26.5601 175.295C26.7621 175.475 25.9091 176.71 24.6745 178.056C23.4398 179.403 22.2501 180.324 22.0481 180.144C21.846 179.964 22.6991 178.73 23.9337 177.383C25.1683 176.036 26.3581 175.116 26.5601 175.295Z" fill="#B2EAF9"/>
<path d="M20.0726 174.15C19.9155 174.375 18.9951 173.948 17.8952 173.387C16.8177 172.826 15.9422 172.31 16.032 172.063C16.0993 171.816 17.1993 171.906 18.3666 172.512C19.5338 173.118 20.2522 173.926 20.0726 174.15Z" fill="#B2EAF9"/>
<path d="M27.615 163.106C27.8395 163.241 27.4354 164.363 26.6946 165.598C25.9539 166.832 25.1682 167.708 24.9213 167.573C24.6968 167.438 25.1009 166.316 25.8416 165.081C26.5824 163.847 27.3681 162.971 27.615 163.106Z" fill="#B2EAF9"/>
<path d="M75.2717 151.725C75.4513 151.927 74.5983 152.915 73.4086 153.902C72.1964 154.89 71.074 155.541 70.9168 155.317C70.7373 155.115 71.5903 154.127 72.78 153.139C73.9922 152.152 75.1146 151.501 75.2717 151.725Z" fill="#B2EAF9"/>
<defs>
<linearGradient id="paint0_linear_47_943" x1="170.608" y1="16.4099" x2="98.393" y2="125.192" gradientUnits="userSpaceOnUse">
<stop offset="0.05" stop-color="#6BC1CD"/>
<stop offset="1" stop-color="#A8EBA4"/>
</linearGradient>
<linearGradient id="paint1_linear_47_943" x1="206.928" y1="40.5189" x2="134.691" y2="149.301" gradientUnits="userSpaceOnUse">
<stop offset="0.05" stop-color="#6BC1CD"/>
<stop offset="1" stop-color="#A8EBA4"/>
</linearGradient>
<linearGradient id="paint2_linear_47_943" x1="214.516" y1="45.5465" x2="142.279" y2="154.351" gradientUnits="userSpaceOnUse">
<stop offset="0.05" stop-color="#6BC1CD"/>
<stop offset="1" stop-color="#A8EBA4"/>
</linearGradient>
<linearGradient id="paint3_linear_47_943" x1="164.973" y1="12.6602" x2="92.7362" y2="121.443" gradientUnits="userSpaceOnUse">
<stop offset="0.05" stop-color="#6BC1CD"/>
<stop offset="1" stop-color="#A8EBA4"/>
</linearGradient>
<linearGradient id="paint4_linear_47_943" x1="186.187" y1="26.7353" x2="113.949" y2="135.54" gradientUnits="userSpaceOnUse">
<stop offset="0.05" stop-color="#6BC1CD"/>
<stop offset="1" stop-color="#A8EBA4"/>
</linearGradient>
<linearGradient id="paint5_linear_47_943" x1="197.321" y1="34.1431" x2="125.084" y2="142.926" gradientUnits="userSpaceOnUse">
<stop offset="0.05" stop-color="#6BC1CD"/>
<stop offset="1" stop-color="#A8EBA4"/>
</linearGradient>
<linearGradient id="paint6_linear_47_943" x1="44.8101" y1="29.2499" x2="58.2788" y2="193.366" gradientUnits="userSpaceOnUse">
<stop offset="0.01" stop-color="#DD85C5"/>
<stop offset="1" stop-color="#6F75D5"/>
</linearGradient>
<linearGradient id="paint7_linear_47_943" x1="105.015" y1="24.311" x2="118.484" y2="188.427" gradientUnits="userSpaceOnUse">
<stop offset="0.01" stop-color="#DD85C5"/>
<stop offset="1" stop-color="#6F75D5"/>
</linearGradient>
<linearGradient id="paint8_linear_47_943" x1="10.6221" y1="35.109" x2="23.8214" y2="196.015" gradientUnits="userSpaceOnUse">
<stop offset="0.01" stop-color="#DD85C5"/>
<stop offset="1" stop-color="#6F75D5"/>
</linearGradient>
<linearGradient id="paint9_linear_47_943" x1="120.1" y1="160.278" x2="188.97" y2="160.278" gradientUnits="userSpaceOnUse">
<stop offset="0.01" stop-color="#DD85C5"/>
<stop offset="1" stop-color="#6F75D5"/>
</linearGradient>
<linearGradient id="paint10_linear_47_943" x1="200.89" y1="139.221" x2="216.267" y2="180.772" gradientUnits="userSpaceOnUse">
<stop stop-color="#E58F7E"/>
<stop offset="0.14" stop-color="#E3857E"/>
<stop offset="0.7" stop-color="#DF637E"/>
<stop offset="1" stop-color="#DE567F"/>
</linearGradient>
<linearGradient id="paint11_linear_47_943" x1="207.827" y1="136.662" x2="223.181" y2="178.213" gradientUnits="userSpaceOnUse">
<stop stop-color="#E58F7E"/>
<stop offset="0.14" stop-color="#E3857E"/>
<stop offset="0.7" stop-color="#DF637E"/>
<stop offset="1" stop-color="#DE567F"/>
</linearGradient>
<linearGradient id="paint12_linear_47_943" x1="215.167" y1="133.946" x2="230.544" y2="175.497" gradientUnits="userSpaceOnUse">
<stop stop-color="#E58F7E"/>
<stop offset="0.14" stop-color="#E3857E"/>
<stop offset="0.7" stop-color="#DF637E"/>
<stop offset="1" stop-color="#DE567F"/>
</linearGradient>
<linearGradient id="paint13_linear_47_943" x1="254.383" y1="72.8202" x2="271.04" y2="72.8202" gradientUnits="userSpaceOnUse">
<stop stop-color="#E58F7E"/>
<stop offset="0.14" stop-color="#E3857E"/>
<stop offset="0.7" stop-color="#DF637E"/>
<stop offset="1" stop-color="#DE567F"/>
</linearGradient>
</defs>
</svg>
