<svg width="228" height="349" viewBox="0 0 228 349" fill="none" xmlns="http://www.w3.org/2000/svg">
<g opacity="0.54">
<path d="M98.4814 268.037C103.514 265.708 110.104 270.676 109.528 276.376C108.974 282.076 101.531 285.536 97.0739 282.209C92.6167 278.86 93.4058 270.432 98.4175 268.081" fill="url(#paint0_linear_45_677)"/>
</g>
<path d="M140.793 132.033C140.793 132.033 151.328 121.609 151.52 123.162C151.733 124.714 149.622 125.845 148.534 129.083C148.534 129.083 162.524 122.141 162.417 123.672C162.311 125.202 153.396 130.126 153.439 130.37C153.482 130.614 163.569 125.779 163.868 126.976C164.166 128.196 154.783 132.654 154.783 132.654C154.783 132.654 163.804 129.217 164.209 130.503C164.593 131.789 156.276 134.961 156.276 134.961C156.276 134.961 163.271 132.366 163.612 133.542C163.825 134.251 148.022 145.895 127.357 143.611C107.033 141.371 140.814 132.033 140.814 132.033" fill="#E0928C"/>
<path d="M115.99 167.875L123.049 167.72C141.902 176.503 166.789 198.105 164.38 216.47C160.733 244.349 115.542 281.832 115.542 281.832L107.375 254.574C107.375 254.574 138.234 226.694 137.018 215.915C135.802 205.136 100.785 195.156 100.785 195.156L94.6427 168.718L115.969 167.875H115.99Z" fill="#4549BE"/>
<path d="M126.589 345.288H100.849L64.8287 167.565L96.5621 166.567L126.589 345.288Z" fill="#4549BE"/>
<path d="M94.792 70.8408C94.792 70.8408 64.9139 71.484 64.5087 101.714C64.1035 131.945 62.8666 171.557 62.8666 171.557L123.049 167.72V99.8513C123.049 84.2593 111.213 71.1957 96.2208 70.8408C95.7517 70.8408 95.2612 70.8408 94.7707 70.8408H94.792Z" fill="url(#paint1_linear_45_677)"/>
<path d="M94.984 134.628L95.0693 132.388L126.995 129.705L137.167 99.6738L172.292 100.982L160.925 133.475L94.984 134.628Z" fill="#251A51"/>
<path d="M153.205 115.554C153.162 117.04 151.946 118.216 150.517 118.171C149.089 118.127 147.958 116.863 148.001 115.377C148.044 113.891 149.259 112.715 150.688 112.76C152.117 112.804 153.247 114.068 153.205 115.554Z" fill="white"/>
<path opacity="0.6" d="M154.25 115.599C154.186 117.683 152.479 119.325 150.475 119.258C148.47 119.192 146.892 117.417 146.956 115.332C147.02 113.248 148.726 111.606 150.731 111.673C152.735 111.739 154.314 113.514 154.25 115.599Z" fill="white"/>
<path d="M70.0322 85.5454C69.3071 86.9205 57.9402 127.109 68.5394 149.4C79.1385 171.712 131.153 138.376 131.153 138.376L125.502 127.863C125.502 127.863 86.5173 143.345 83.0198 137.534C79.5223 131.723 87.9675 99.6958 87.9675 99.6958L70.0109 85.5454H70.0322Z" fill="#F6AEA6"/>
<path d="M65.575 89.5598C63.1225 99.363 60.1156 114.445 60.4568 128.573L85.6004 126.444C85.6004 126.444 90.9532 87.3419 86.1122 82.285C84.8966 81.0208 84.7261 77.6495 82.7214 77.339C74.916 76.1635 67.5797 81.6196 65.575 89.5598Z" fill="url(#paint2_linear_45_677)"/>
<path d="M83.2546 31.3841L84.4914 48.2847C84.4914 48.2847 78.3708 49.1497 80.1196 54.9385C81.8683 60.7495 86.0483 58.1988 86.0483 58.1988C86.0483 58.1988 87.0933 73.059 101.744 68.357C116.396 63.6328 111.512 40.0784 110.104 25.928L83.2546 31.3619V31.3841Z" fill="#F6AEA6"/>
<path d="M84.4914 54.5171L88.4368 76.408C89.3325 81.3318 94.003 84.4813 98.6947 83.328C103.045 82.2412 105.818 77.8275 105.05 73.2586L102.917 60.7273L84.5127 54.5393L84.4914 54.5171Z" fill="#F6AEA6"/>
<path d="M100.763 54.7611C100.763 54.7611 100.913 54.9608 101.254 55.0495C101.574 55.1382 102.171 55.0495 102.533 54.5172C102.896 53.9849 102.917 53.142 102.811 52.2327C102.725 51.2125 102.64 50.2366 102.533 49.2163C102.342 47.0649 102.214 45.1353 102.128 43.7159C102.043 42.3186 102.022 41.4314 102.086 41.4314C102.15 41.4314 102.278 42.2964 102.427 43.6937C102.576 45.091 102.768 47.0206 102.96 49.1719C103.045 50.1922 103.109 51.1681 103.195 52.1883C103.28 53.0977 103.259 54.0736 102.768 54.6946C102.256 55.3156 101.574 55.36 101.19 55.2047C100.785 55.0273 100.742 54.7611 100.763 54.7611Z" fill="#251A51"/>
<path d="M106.052 66.3609C106.052 66.3609 105.924 66.5383 105.626 66.7823C105.327 67.0263 104.879 67.359 104.261 67.6916C103.067 68.357 101.232 69.0446 99.1212 69.0889C97.0099 69.1333 95.1545 68.5566 93.9389 67.9134C93.3204 67.6029 92.8513 67.2924 92.5528 67.0706C92.2542 66.8488 92.0836 66.6936 92.1049 66.6714C92.1262 66.5161 94.9839 68.7562 99.1212 68.6453C103.258 68.5566 106.01 66.2056 106.052 66.3609Z" fill="#251A51"/>
<path d="M102.576 57.8218C102.576 57.8218 102.384 58.2876 101.744 58.709C101.126 59.1304 100.038 59.4631 98.8865 59.086C97.7563 58.709 97.0525 57.7553 96.7753 57.0456C96.498 56.3136 96.562 55.8257 96.6046 55.8257C96.6686 55.8257 96.7113 56.2915 97.0525 56.9125C97.3724 57.5335 98.0335 58.3319 99.0145 58.6646C99.9955 58.9973 100.998 58.7533 101.595 58.4207C102.213 58.1101 102.512 57.7553 102.576 57.7996V57.8218Z" fill="#251A51"/>
<path d="M97.3512 55.5594C97.3512 55.6925 96.7753 55.7812 96.2208 56.2248C95.6663 56.6462 95.4318 57.2229 95.3038 57.1785C95.1972 57.1785 95.3038 56.4022 95.9649 55.8699C96.626 55.3376 97.3512 55.4264 97.3512 55.5373V55.5594Z" fill="#251A51"/>
<path d="M84.0436 55.6928C84.0436 55.6928 83.6811 55.848 83.1053 55.6484C82.828 55.5375 82.4867 55.2935 82.3374 54.85C82.1668 54.4729 82.2735 53.7632 82.828 53.5414C83.1692 53.3861 83.6384 53.497 83.8516 53.8519L83.4891 54.0515C82.9986 52.8316 82.7 51.9223 82.7853 51.9001C82.8706 51.8558 83.3185 52.6986 83.8516 53.8963L83.4891 54.0959C83.4038 53.9628 83.1692 53.8963 82.956 53.985C82.6574 54.0959 82.5721 54.4507 82.6787 54.7613C82.764 55.0718 82.9773 55.2714 83.1905 55.4044C83.6384 55.6484 84.0009 55.6706 84.0009 55.7371L84.0436 55.6928Z" fill="#251A51"/>
<path d="M107.652 45.2017C107.374 45.2683 107.033 44.7803 106.884 44.1149C106.735 43.4496 106.841 42.8729 107.14 42.8064C107.417 42.7398 107.758 43.2278 107.908 43.8932C108.057 44.5585 107.929 45.1352 107.652 45.2017Z" fill="#251A51"/>
<path d="M96.0715 46.3995C95.7943 46.4882 95.4318 46.0002 95.2399 45.357C95.0693 44.6916 95.1545 44.0928 95.4318 44.0041C95.709 43.9154 96.0716 44.4033 96.2635 45.0465C96.4341 45.7119 96.3488 46.3107 96.0715 46.3995Z" fill="#251A51"/>
<path d="M83.1691 48.6839C81.2711 44.248 80.7166 39.8787 80.2475 35.0436C80.0555 33.0697 79.9916 31.0514 80.5247 29.1439C81.0579 27.2365 82.2735 25.4622 84.0222 24.7081C86.5387 23.6213 89.5243 24.7746 92.0835 23.7987C93.3844 23.2886 94.4507 22.2684 95.389 21.2038C96.3274 20.1392 97.2231 18.9858 98.3321 18.1208C99.441 17.2558 100.87 16.6792 102.235 16.9453C103.6 17.2115 104.815 18.5422 104.666 19.9839C105.946 17.5663 108.611 16.0138 111.256 16.1247C113.9 16.2356 116.438 18.0099 117.526 20.5162C118.613 23.0225 118.23 26.1719 116.566 28.3233C115.009 30.3195 112.109 30.4303 110.168 32.0494C106.074 35.4429 99.6543 36.1304 93.1925 34.6001C90.3988 33.9347 87.0293 35.0658 86.4535 37.9935C86.2402 39.0803 86.4321 43.3609 86.496 44.4698C86.56 45.5788 86.4961 46.7321 85.9203 47.6637C85.3445 48.5952 84.1075 49.1719 83.1905 48.6396" fill="#251A51"/>
<path d="M95.3037 40.9432C95.0265 41.8082 94.5147 42.407 94.1308 42.5401C93.7469 42.6288 93.0218 42.3405 92.3607 41.7416C92.0621 41.4311 91.9341 40.9653 92.0834 40.4996C92.2327 40.0338 92.7019 39.568 93.3204 39.3906C93.9388 39.2132 94.5786 39.3906 94.9198 39.7233C95.2824 40.056 95.389 40.5218 95.2824 40.9432H95.3037Z" fill="#251A51"/>
<path d="M107.972 38.8586C107.609 39.6792 106.927 40.1893 106.393 40.2558C105.86 40.278 105.114 39.9232 104.623 39.1691C104.111 38.4372 104.73 37.1508 106.138 37.0177C107.545 36.9068 108.355 38.0601 107.972 38.8807V38.8586Z" fill="#251A51"/>
<path d="M83.6596 126.555C83.6596 126.555 83.6596 126.355 83.6596 125.978C83.7023 125.468 83.7237 124.936 83.7877 124.337C83.9157 122.674 84.0435 120.655 84.2141 118.282C84.534 113.159 84.8752 106.084 84.8752 98.2765C84.8326 94.3729 85.0246 90.6025 84.2355 87.3421C83.8516 85.723 83.2119 84.237 82.2949 83.1059C81.4205 81.9525 80.2688 81.1541 79.1812 80.6218C76.9632 79.5572 74.8732 79.6015 73.551 79.8455C72.2075 80.1117 71.5251 80.5109 71.5038 80.4665C71.5038 80.4665 72.1649 80.023 73.5085 79.6903C74.852 79.3798 76.9845 79.291 79.2878 80.3556C80.4181 80.8879 81.6124 81.6864 82.5508 82.8841C83.5104 84.0596 84.1928 85.5899 84.598 87.2534C85.4084 90.6024 85.2378 94.3951 85.2804 98.2765C85.2804 106.106 84.8966 113.181 84.4914 118.304C84.2995 120.855 84.0862 122.918 83.9369 124.359C83.8729 124.958 83.809 125.49 83.745 126.001C83.7024 126.378 83.6597 126.577 83.6384 126.577L83.6596 126.555Z" fill="#251A51"/>
<path d="M85.8776 126.999C85.8776 126.999 85.5364 127.11 84.9179 127.198C84.0649 127.331 83.1905 127.442 82.2735 127.575C80.0343 127.864 76.9632 128.219 73.5297 128.507C70.1175 128.795 67.0039 128.95 64.7646 129.039C63.8476 129.039 62.9732 129.084 62.0988 129.106C61.4804 129.106 61.1179 129.106 61.1179 129.061C61.1179 129.039 61.4591 128.995 62.0988 128.928C62.9732 128.862 63.8476 128.795 64.7433 128.729C67.4517 128.529 70.3308 128.307 73.4871 128.063C76.6434 127.775 79.5224 127.509 82.2308 127.265C83.1478 127.176 84.0222 127.11 84.8752 127.021C85.4937 126.976 85.8563 126.954 85.8563 126.976L85.8776 126.999Z" fill="#251A51"/>
<path d="M122.218 128.906C122.218 128.906 132.753 118.482 132.945 120.034C133.158 121.587 131.047 122.718 129.959 125.956C129.959 125.956 143.949 119.014 143.842 120.544C143.736 122.075 134.821 126.998 134.864 127.242C134.907 127.464 144.994 122.651 145.293 123.849C145.591 125.069 136.208 129.527 136.208 129.527C136.208 129.527 145.229 126.089 145.634 127.376C146.018 128.662 137.7 131.834 137.7 131.834C137.7 131.834 144.695 129.239 145.037 130.414C145.25 131.124 124.841 141.57 125.033 142.08C125.139 142.347 122.239 128.928 122.239 128.928" fill="#F6AEA6"/>
<path d="M115.5 341.206C115.5 341.206 111.938 332.179 107.332 317.186C105.007 309.689 102.533 300.685 100.017 290.593C97.5645 280.501 95.112 269.345 92.8301 257.568C88.3302 233.992 85.2379 212.478 83.0626 196.908C82.0176 189.189 81.1646 182.913 80.5675 178.455C80.2902 176.348 80.0769 174.684 79.9276 173.442C79.7783 172.289 79.7357 171.69 79.7357 171.69C79.7357 171.69 79.8424 172.289 80.013 173.442C80.1836 174.684 80.4394 176.348 80.738 178.455C81.3778 182.913 82.2736 189.189 83.3612 196.886C85.6218 212.455 88.7566 233.947 93.2565 257.502C95.5384 269.279 97.9697 280.413 100.401 290.504C102.896 300.574 105.327 309.601 107.63 317.097C108.697 320.868 109.848 324.217 110.787 327.189C111.704 330.161 112.578 332.689 113.325 334.752C114.007 336.748 114.561 338.345 114.967 339.521C115.329 340.607 115.521 341.184 115.521 341.184L115.5 341.206Z" fill="#352A77"/>
<path d="M126.056 340.43C126.056 340.541 120.192 340.652 112.962 340.652C105.732 340.652 99.8677 340.563 99.8677 340.43C99.8677 340.297 105.732 340.208 112.962 340.208C120.192 340.208 126.056 340.297 126.056 340.43Z" fill="#352A77"/>
<path d="M116.204 283.473C116.204 283.473 116.054 283.052 115.862 282.254C115.67 281.455 115.414 280.302 115.116 278.86C114.54 275.977 113.922 271.985 113.303 267.571C112.706 263.135 112.109 259.143 111.618 256.259C111.405 255.04 111.192 253.908 111.021 252.844C110.872 252.045 110.808 251.58 110.829 251.58C110.851 251.58 110.979 252.001 111.171 252.799C111.362 253.598 111.618 254.751 111.896 256.193C112.472 259.054 113.09 263.068 113.708 267.482C114.306 271.896 114.903 275.91 115.393 278.794C115.606 280.013 115.82 281.145 115.99 282.209C116.14 283.008 116.203 283.473 116.182 283.473H116.204Z" fill="#352A77"/>
<path d="M104.794 187.792C104.794 187.792 105.178 187.836 105.924 187.925C106.777 188.058 107.844 188.213 109.166 188.413C111.96 188.878 116.033 189.522 120.938 190.963C125.8 192.405 131.622 194.734 136.762 199.325C139.3 201.631 141.688 204.448 143.352 207.886C145.037 211.302 145.911 215.294 145.762 219.353C145.634 223.412 144.695 227.315 143.309 230.842C141.966 234.39 140.238 237.628 138.319 240.512C134.459 246.256 130.087 250.714 126.27 254.174C122.431 257.634 119.125 260.185 116.822 261.915C114.519 263.645 113.197 264.532 113.197 264.532C113.197 264.532 113.495 264.266 114.092 263.8C114.775 263.268 115.649 262.602 116.715 261.76C118.976 259.985 122.26 257.412 126.056 253.93C129.852 250.448 134.182 245.99 137.978 240.268C139.854 237.384 141.56 234.191 142.904 230.664C144.269 227.16 145.186 223.301 145.314 219.308C145.442 215.316 144.61 211.413 142.947 208.041C141.326 204.67 138.959 201.898 136.463 199.591C131.388 195.022 125.63 192.693 120.81 191.207C115.948 189.743 111.874 189.056 109.081 188.524C107.78 188.28 106.713 188.102 105.86 187.947C105.114 187.814 104.751 187.725 104.751 187.725L104.794 187.792Z" fill="#352A77"/>
<path d="M102.981 167.72C102.981 167.72 103.067 168.119 103.109 168.851C103.173 169.827 103.258 170.847 103.322 171.912C103.493 174.95 103.685 178.321 103.898 182.048C103.984 183.999 104.069 185.862 104.154 187.637C104.176 188.502 104.112 189.389 103.749 190.099C103.408 190.831 102.853 191.341 102.299 191.696C101.19 192.383 100.166 192.583 99.4838 192.716C98.8013 192.849 98.3961 192.871 98.3961 192.849C98.3961 192.827 98.7586 192.738 99.4411 192.561C100.102 192.383 101.105 192.117 102.128 191.452C102.619 191.097 103.13 190.631 103.408 189.966C103.728 189.322 103.77 188.502 103.728 187.659C103.642 185.885 103.536 184.022 103.429 182.092C103.258 178.388 103.109 175.017 102.981 171.956C102.96 170.891 102.917 169.871 102.896 168.873C102.896 168.141 102.896 167.742 102.917 167.742L102.981 167.72Z" fill="#352A77"/>
<g opacity="0.31">
<path d="M100.891 89.9374C100.891 89.9374 100.23 90.8467 99.2493 91.7783C98.2683 92.7098 97.3938 93.3974 97.3085 93.3087C97.2232 93.2199 97.9697 92.3993 98.9507 91.4678C99.9317 90.5362 100.806 89.8487 100.891 89.9374Z" fill="white"/>
</g>
<g opacity="0.31">
<path d="M96.1355 106.727C96.1355 106.727 95.6023 106.061 95.1758 105.13C94.7493 104.198 94.4933 103.4 94.6 103.355C94.7066 103.311 95.1332 104.021 95.5597 104.952C95.9862 105.884 96.2422 106.682 96.1355 106.727Z" fill="white"/>
</g>
<g opacity="0.31">
<path d="M107.417 102.336C107.417 102.336 107.033 103.134 106.372 103.977C105.711 104.798 105.093 105.419 105.007 105.33C104.922 105.263 105.391 104.531 106.052 103.689C106.713 102.868 107.332 102.247 107.417 102.336Z" fill="white"/>
</g>
<g opacity="0.31">
<path d="M107.033 97.8547C107.033 97.9656 105.775 98.0321 104.218 97.9878C102.661 97.9434 101.403 97.8103 101.403 97.6773C101.403 97.5664 102.661 97.4998 104.218 97.5442C105.775 97.5885 107.033 97.7216 107.033 97.8547Z" fill="white"/>
</g>
<g opacity="0.31">
<path d="M110.275 91.1126C110.275 91.1126 110.552 90.0259 111.107 88.806C111.682 87.5861 112.216 86.6324 112.322 86.6768C112.429 86.7211 112.045 87.7635 111.491 88.9834C110.915 90.2033 110.382 91.157 110.275 91.1126Z" fill="white"/>
</g>
<g opacity="0.31">
<path d="M88.778 90.9572C88.778 91.0681 87.6691 90.7576 86.9227 89.6043C86.5388 89.0498 86.3681 88.4288 86.3255 88.0074L86.2829 87.4751L86.5815 87.8743C86.8374 88.207 86.9653 88.4288 86.9227 88.4732C86.88 88.5175 86.6667 88.3623 86.3682 88.0961L86.6241 87.963C86.7307 88.3401 86.9226 88.8724 87.2638 89.3825C87.9249 90.4028 88.842 90.8685 88.778 90.9794V90.9572Z" fill="white"/>
</g>
<g opacity="0.31">
<path d="M80.0768 77.2723C80.0768 77.1392 80.9725 77.0948 81.9962 76.6956C83.0198 76.3186 83.7449 75.7419 83.8302 75.8528C83.9155 75.9193 83.2544 76.6956 82.1455 77.117C81.0365 77.5384 80.0554 77.3832 80.0768 77.2723Z" fill="white"/>
</g>
<g opacity="0.31">
<path d="M90.3136 84.3701C90.3136 84.3701 89.3324 83.9043 88.4581 82.9062C87.5837 81.9082 87.1573 80.8879 87.2426 80.8214C87.3492 80.7549 87.9249 81.642 88.7567 82.5957C89.5884 83.5716 90.3775 84.2592 90.2922 84.3701H90.3136Z" fill="white"/>
</g>
<g opacity="0.31">
<path d="M107.886 79.2245C107.886 79.2245 107.332 80.3557 106.436 81.5755C105.54 82.7954 104.73 83.7269 104.645 83.6604C104.559 83.5939 105.199 82.5293 106.095 81.3094C106.991 80.0895 107.801 79.158 107.886 79.2245Z" fill="white"/>
</g>
<g opacity="0.31">
<path d="M88.8207 100.184C88.8207 100.184 89.1406 99.1196 89.7377 97.9441C90.3562 96.7686 90.9319 95.8593 91.0386 95.9258C91.1452 95.9923 90.7187 96.9904 90.1215 98.1659C89.5031 99.3414 88.9273 100.251 88.8207 100.184Z" fill="white"/>
</g>
<g opacity="0.31">
<path d="M77.6883 97.5228C77.6883 97.5228 76.7287 97.3232 75.9823 96.3917C75.2145 95.4824 75.0439 94.4843 75.1505 94.4621C75.2571 94.4177 75.5984 95.2827 76.3022 96.1034C76.9846 96.9462 77.7523 97.3898 77.6883 97.5007V97.5228Z" fill="white"/>
</g>
<g opacity="0.31">
<path d="M74.2975 91.6671C74.2975 91.6671 75.1506 90.6246 76.3875 89.56C77.6031 88.4732 78.6693 87.6748 78.7333 87.7857C78.7973 87.8744 77.8803 88.8281 76.6434 89.8927C75.4278 90.9795 74.3615 91.7779 74.2975 91.6671Z" fill="white"/>
</g>
<g opacity="0.31">
<path d="M73.2099 88.3623C73.2099 88.3623 72.4635 88.1405 71.6531 87.6526C70.864 87.1425 70.2668 86.6545 70.3307 86.5658C70.3947 86.4549 71.0773 86.7876 71.8877 87.2977C72.6767 87.8078 73.2738 88.2958 73.2099 88.3845V88.3623Z" fill="white"/>
</g>
<g opacity="0.31">
<path d="M69.3712 106.727C69.2646 106.727 69.2646 105.662 69.3926 104.398C69.5205 103.112 69.7124 102.091 69.8404 102.114C69.947 102.114 69.947 103.178 69.819 104.442C69.6911 105.707 69.4992 106.749 69.3712 106.727Z" fill="white"/>
</g>
<g opacity="0.31">
<path d="M67.3239 96.4578C67.2173 96.4135 67.3879 95.5485 67.7291 94.5282C68.049 93.508 68.4116 92.6873 68.5182 92.7317C68.6248 92.7761 68.4542 93.6411 68.113 94.6613C67.7931 95.6816 67.4306 96.5022 67.3239 96.4578Z" fill="white"/>
</g>
<g opacity="0.31">
<path d="M79.3304 108.745C79.3304 108.745 78.4347 107.969 77.539 106.837C76.6433 105.706 75.9822 104.73 76.0888 104.664C76.1741 104.597 76.9846 105.44 77.8803 106.571C78.776 107.702 79.4371 108.678 79.3304 108.745Z" fill="white"/>
</g>
<g opacity="0.31">
<path d="M83.1479 104.42C83.0412 104.376 83.3399 103.023 83.5105 101.315C83.7025 99.6073 83.7024 98.21 83.8303 98.21C83.937 98.21 84.1289 99.6294 83.9369 101.359C83.745 103.112 83.2545 104.442 83.1479 104.42Z" fill="white"/>
</g>
<g opacity="0.31">
<path d="M71.717 119.524C71.717 119.524 70.5228 118.948 69.2219 118.016C67.8997 117.085 66.8974 116.242 66.9613 116.153C67.0253 116.064 68.1556 116.73 69.4565 117.661C70.7787 118.593 71.781 119.435 71.717 119.524Z" fill="white"/>
</g>
<g opacity="0.31">
<path d="M74.9586 115.776C74.852 115.776 74.7027 114.601 74.66 113.115C74.6174 111.651 74.66 110.453 74.788 110.453C74.8946 110.453 75.0439 111.629 75.0866 113.115C75.1292 114.578 75.0866 115.776 74.9586 115.776Z" fill="white"/>
</g>
<g opacity="0.31">
<path d="M82.6359 118.792C82.6359 118.792 81.0365 120.167 78.9039 121.609C76.7712 123.073 75.0012 124.182 74.9372 124.071C74.8732 123.96 76.5367 122.696 78.6693 121.254C80.8019 119.79 82.572 118.681 82.6359 118.792Z" fill="white"/>
</g>
<g opacity="0.31">
<path d="M71.5463 123.405C71.5463 123.516 70.2668 123.516 68.71 123.383C67.1532 123.25 65.895 123.051 65.9163 122.917C65.9163 122.807 67.1958 122.807 68.7526 122.94C70.3094 123.073 71.5676 123.272 71.5463 123.405Z" fill="white"/>
</g>
<g opacity="0.31">
<path d="M90.6547 121.986C90.5481 121.986 90.3987 120.611 90.3561 118.881C90.3134 117.173 90.3561 115.776 90.484 115.776C90.5907 115.776 90.74 117.151 90.7826 118.881C90.8253 120.589 90.7826 121.986 90.6547 121.986Z" fill="white"/>
</g>
<g opacity="0.31">
<path d="M103.962 116.841C103.962 116.952 102.768 116.885 101.446 116.264C100.124 115.665 99.2706 114.8 99.3345 114.734C99.4198 114.623 100.337 115.31 101.595 115.887C102.853 116.464 103.962 116.73 103.941 116.863L103.962 116.841Z" fill="white"/>
</g>
<g opacity="0.31">
<path d="M95.3038 125.202C95.3038 125.202 95.7303 123.938 96.4767 122.518C97.2232 121.099 97.927 119.99 98.0123 120.057C98.1189 120.123 97.5858 121.321 96.8394 122.74C96.093 124.16 95.3891 125.269 95.3038 125.202Z" fill="white"/>
</g>
<g opacity="0.31">
<path d="M112.855 113.092C112.855 113.092 111.682 112.693 110.616 111.584C109.55 110.475 109.081 109.299 109.166 109.255C109.273 109.188 109.891 110.231 110.893 111.273C111.896 112.338 112.898 112.981 112.834 113.092H112.855Z" fill="white"/>
</g>
<g opacity="0.31">
<path d="M116.566 103.533C116.566 103.533 117.099 102.114 117.974 100.472C118.848 98.8532 119.637 97.5668 119.744 97.6333C119.85 97.6999 119.21 99.0528 118.336 100.694C117.462 102.313 116.673 103.6 116.566 103.533Z" fill="white"/>
</g>
<g opacity="0.31">
<path d="M114.817 96.8124C114.711 96.8568 114.348 95.9918 114.028 94.9272C113.708 93.8404 113.538 92.931 113.644 92.9089C113.751 92.8645 114.114 93.7295 114.433 94.7941C114.753 95.8809 114.924 96.7902 114.817 96.8124Z" fill="white"/>
</g>
<g opacity="0.31">
<path d="M119.68 119.502C119.68 119.502 119.04 118.127 118.891 116.264C118.72 114.401 118.997 112.915 119.104 112.937C119.232 112.937 119.147 114.423 119.317 116.22C119.466 118.016 119.808 119.458 119.701 119.502H119.68Z" fill="white"/>
</g>
<g opacity="0.31">
<path d="M112.834 124.98C112.834 124.98 111.384 124.736 109.848 123.738C108.334 122.74 107.417 121.543 107.502 121.476C107.588 121.387 108.611 122.408 110.083 123.384C111.533 124.359 112.877 124.87 112.834 124.98Z" fill="white"/>
</g>
<g opacity="0.31">
<path d="M101.574 129.971C101.574 129.971 102 128.817 102.747 127.553C103.493 126.267 104.176 125.291 104.282 125.357C104.389 125.424 103.856 126.511 103.109 127.775C102.363 129.061 101.68 130.037 101.574 129.971Z" fill="white"/>
</g>
<g opacity="0.31">
<path d="M89.3752 136.18C89.2686 136.18 89.2046 135.182 89.2259 133.963C89.2686 132.743 89.3752 131.745 89.5032 131.745C89.6098 131.745 89.6738 132.743 89.6525 133.963C89.6098 135.182 89.5032 136.18 89.3752 136.18Z" fill="white"/>
</g>
<g opacity="0.31">
<path d="M70.6934 159.957C70.6934 159.957 69.6484 159.247 68.7527 158.005C67.8356 156.763 67.3665 155.565 67.4518 155.521C67.5584 155.454 68.1769 156.519 69.0726 157.739C69.947 158.959 70.7787 159.868 70.6934 159.957Z" fill="white"/>
</g>
<g opacity="0.31">
<path d="M71.0346 165.28C71.0346 165.28 70.2456 166.3 69.0939 167.365C67.9423 168.429 66.9612 169.206 66.8759 169.117C66.7906 169.028 67.6651 168.097 68.8167 167.032C69.9683 165.967 70.9493 165.191 71.0346 165.28Z" fill="white"/>
</g>
<g opacity="0.31">
<path d="M67.2812 163.328C67.2812 163.328 66.4921 162.796 65.7031 161.953C64.914 161.11 64.3382 160.356 64.4235 160.29C64.5088 160.201 65.2126 160.822 66.0017 161.665C66.7907 162.508 67.3665 163.262 67.2812 163.328Z" fill="white"/>
</g>
<g opacity="0.31">
<path d="M66.7692 149.843C66.6413 149.843 66.3854 148.779 65.9588 147.47C65.5323 146.162 65.1272 145.119 65.2338 145.053C65.3404 144.986 65.9375 145.962 66.364 147.315C66.7906 148.668 66.8759 149.821 66.7692 149.843Z" fill="white"/>
</g>
<g opacity="0.31">
<path d="M83.7024 165.391C83.7024 165.391 82.0817 166.167 79.9064 166.389C77.7311 166.611 75.9823 166.256 76.0037 166.145C76.0037 166.012 77.7524 166.145 79.8637 165.945C81.975 165.746 83.6598 165.258 83.7024 165.391Z" fill="white"/>
</g>
<g opacity="0.31">
<path d="M82.7853 161.798C82.7853 161.798 81.3778 161.554 79.821 160.777C78.2641 160.001 77.1339 159.136 77.1765 159.047C77.2405 158.937 78.4561 159.624 79.9916 160.378C81.5271 161.132 82.8066 161.665 82.764 161.798H82.7853Z" fill="white"/>
</g>
<g opacity="0.31">
<path d="M93.9603 157.008C93.9603 157.008 92.9367 158.205 91.4866 159.514C90.0364 160.8 88.8207 161.776 88.7354 161.687C88.6501 161.599 89.7591 160.49 91.2093 159.181C92.6595 157.895 93.875 156.919 93.9603 157.008Z" fill="white"/>
</g>
<g opacity="0.31">
<path d="M96.6261 166.168C96.5834 166.278 95.112 165.901 93.3205 165.303C91.5291 164.704 90.1003 164.149 90.143 164.038C90.1856 163.927 91.6571 164.305 93.4485 164.903C95.2399 165.48 96.6687 166.057 96.6261 166.168Z" fill="white"/>
</g>
<g opacity="0.31">
<path d="M96.9674 161.554C96.8608 161.51 97.1806 160.556 97.2659 159.336C97.3725 158.116 97.2019 157.14 97.3085 157.118C97.4152 157.074 97.7777 158.094 97.6711 159.38C97.5858 160.667 97.0527 161.598 96.9674 161.554Z" fill="white"/>
</g>
<g opacity="0.31">
<path d="M105.498 162.441C105.391 162.463 105.029 161.288 104.687 159.824C104.346 158.36 104.176 157.14 104.282 157.118C104.389 157.096 104.751 158.249 105.093 159.735C105.434 161.199 105.605 162.419 105.498 162.441Z" fill="white"/>
</g>
<g opacity="0.31">
<path d="M108.228 166.168C108.228 166.278 106.521 166.301 104.495 165.768C102.469 165.236 100.998 164.349 101.041 164.238C101.083 164.127 102.619 164.815 104.602 165.347C106.564 165.879 108.228 166.057 108.228 166.168Z" fill="white"/>
</g>
<g opacity="0.31">
<path d="M118.933 158.671C118.933 158.671 117.995 159.713 116.694 160.822C115.393 161.909 114.263 162.707 114.199 162.619C114.135 162.53 115.137 161.576 116.438 160.467C117.739 159.38 118.869 158.56 118.933 158.671Z" fill="white"/>
</g>
<g opacity="0.31">
<path d="M116.779 154.301C116.779 154.301 116.054 155.61 114.625 156.696C113.197 157.783 111.81 158.227 111.789 158.116C111.746 158.005 113.026 157.406 114.391 156.341C115.777 155.299 116.694 154.212 116.801 154.301H116.779Z" fill="white"/>
</g>
<g opacity="0.31">
<path d="M113.346 153.636C113.346 153.747 112.024 153.681 110.424 153.481C108.825 153.282 107.545 153.015 107.545 152.905C107.545 152.794 108.867 152.86 110.467 153.06C112.066 153.259 113.346 153.526 113.346 153.636Z" fill="white"/>
</g>
<g opacity="0.31">
<path d="M117.27 150.02C117.27 150.02 117.824 149.2 118.848 148.623C119.872 148.046 120.81 147.891 120.831 148.002C120.853 148.113 120.021 148.446 119.04 149C118.08 149.555 117.355 150.109 117.27 150.02Z" fill="white"/>
</g>
<g opacity="0.31">
<path d="M118.102 127.287C117.995 127.332 117.526 126.201 117.078 124.759C116.609 123.317 116.332 122.142 116.438 122.097C116.545 122.053 117.014 123.184 117.462 124.626C117.931 126.068 118.208 127.243 118.102 127.287Z" fill="white"/>
</g>
<path d="M103.195 345.287C103.195 345.287 130.471 350.122 129.17 348.57C127.869 347.017 124.691 345.287 124.691 345.287H103.216H103.195Z" fill="#171330"/>
<path d="M126.568 45.2235C126.248 46.2216 126.568 70.6188 126.568 70.6188L142.179 71.9495L140.345 81.3757L149.536 71.7721L166.235 72.9254L167.493 43.6931L126.568 45.2013V45.2235Z" fill="#D9D7E2"/>
<path d="M153.311 58.9525C153.439 59.9728 154.335 60.7047 155.316 60.5716C156.297 60.4385 157.001 59.507 156.873 58.4868C156.745 57.4665 155.849 56.7346 154.868 56.8677C153.887 57.0008 153.183 57.9323 153.311 58.9525Z" fill="white"/>
<path d="M144.887 58.7528C145.015 59.7731 145.911 60.505 146.892 60.3719C147.873 60.2388 148.577 59.3073 148.449 58.2871C148.321 57.2668 147.425 56.5349 146.444 56.668C145.463 56.801 144.759 57.7326 144.887 58.7528Z" fill="white"/>
<path d="M137.039 58.265C137.167 59.2853 138.063 60.0172 139.044 59.8841C140.025 59.751 140.729 58.8195 140.601 57.7993C140.473 56.779 139.577 56.0471 138.596 56.1802C137.615 56.3133 136.911 57.2448 137.039 58.265Z" fill="white"/>
<g opacity="0.36">
<path d="M175 118.504C175 118.615 174.083 118.526 172.995 118.305C171.908 118.061 171.055 117.795 171.076 117.662C171.097 117.551 171.993 117.639 173.081 117.861C174.168 118.083 175.021 118.371 175 118.504Z" fill="#251A51"/>
<path d="M182.997 119.058C182.997 119.169 182.102 119.258 180.993 119.236C179.884 119.213 178.988 119.103 178.988 118.969C178.988 118.859 179.905 118.77 180.993 118.792C182.102 118.814 182.997 118.925 182.997 119.058Z" fill="#251A51"/>
<path d="M190.931 117.95C190.952 118.061 190.099 118.327 189.011 118.548C187.924 118.77 187.007 118.859 187.007 118.726C187.007 118.615 187.86 118.327 188.926 118.127C190.014 117.905 190.909 117.839 190.931 117.95Z" fill="#251A51"/>
<path d="M198.374 114.889C198.374 114.889 197.67 115.51 196.667 116.02C195.665 116.53 194.769 116.752 194.748 116.663C194.705 116.53 195.516 116.131 196.497 115.62C197.478 115.11 198.331 114.778 198.374 114.889Z" fill="#251A51"/>
<path d="M204.75 109.854C204.75 109.854 204.217 110.631 203.385 111.385C202.553 112.161 201.807 112.693 201.743 112.604C201.679 112.516 202.276 111.828 203.108 111.074C203.94 110.32 204.665 109.788 204.75 109.854Z" fill="#251A51"/>
<path d="M209.442 103.111C209.442 103.111 209.165 104.021 208.567 104.997C207.97 105.995 207.437 106.726 207.331 106.66C207.245 106.593 207.629 105.751 208.205 104.775C208.781 103.799 209.335 103.067 209.442 103.111Z" fill="#251A51"/>
<path d="M211.788 95.1934C211.788 95.1934 211.937 96.1692 211.638 97.3004C211.383 98.4315 211.084 99.3187 210.977 99.2965C210.871 99.2522 210.977 98.3206 211.233 97.2117C211.532 96.1027 211.66 95.1934 211.809 95.2156L211.788 95.1934Z" fill="#251A51"/>
<path d="M211.105 86.9205C211.212 86.8762 211.553 87.7633 211.766 88.9167C211.98 90.07 211.937 91.0237 211.83 91.0237C211.724 91.0237 211.553 90.1144 211.361 89.0054C211.169 87.8743 210.999 86.9649 211.105 86.9427V86.9205Z" fill="#251A51"/>
<path d="M207.544 79.5132C207.544 79.5132 208.269 80.112 208.866 81.1101C209.463 82.1082 209.762 82.9953 209.676 83.0397C209.57 83.084 209.101 82.3078 208.525 81.3319C207.949 80.356 207.458 79.5797 207.565 79.5132H207.544Z" fill="#251A51"/>
<path d="M201.423 74.2341C201.423 74.2341 202.34 74.4337 203.278 75.0769C204.217 75.7201 204.857 76.4077 204.771 76.4964C204.686 76.5851 203.961 76.0528 203.044 75.4317C202.127 74.8107 201.359 74.3228 201.423 74.2119V74.2341Z" fill="#251A51"/>
<path d="M193.618 73.1033C193.575 72.9924 194.471 72.6597 195.601 72.6375C196.731 72.6154 197.627 72.8815 197.606 72.9924C197.606 73.1255 196.689 73.0368 195.601 73.0589C194.514 73.0589 193.639 73.2142 193.596 73.1033H193.618Z" fill="#251A51"/>
<path d="M188.414 78.7368C188.308 78.7368 188.286 77.7387 188.798 76.6519C189.31 75.5652 190.078 74.9663 190.142 75.055C190.227 75.1437 189.63 75.8313 189.182 76.8515C188.713 77.8496 188.542 78.759 188.414 78.7368Z" fill="#251A51"/>
<path d="M191.037 86.3887C191.037 86.3887 190.269 85.8121 189.694 84.814C189.097 83.8159 188.883 82.8622 188.969 82.8401C189.075 82.7957 189.459 83.6385 190.035 84.5922C190.589 85.5681 191.123 86.3222 191.037 86.3887Z" fill="#251A51"/>
<path d="M197.67 90.8686C197.648 90.9795 196.753 90.7355 195.708 90.3363C194.684 89.8261 193.959 89.2495 194.023 89.1608C194.087 89.0499 194.897 89.4491 195.878 89.937C196.902 90.3363 197.691 90.7577 197.67 90.8686Z" fill="#251A51"/>
<path d="M205.603 91.5782C205.603 91.6891 204.729 91.9109 203.598 91.9331C202.468 91.9553 201.572 91.7557 201.594 91.6448C201.594 91.5117 202.49 91.5117 203.598 91.4895C204.686 91.4895 205.582 91.4452 205.603 91.5782Z" fill="#251A51"/>
<path d="M213.259 89.2054C213.259 89.2054 212.513 89.7377 211.468 90.1813C210.423 90.6027 209.548 90.8689 209.527 90.7358C209.506 90.6249 210.295 90.1813 211.319 89.7599C212.342 89.3385 213.217 89.0945 213.259 89.2054Z" fill="#251A51"/>
<path d="M219.806 84.4363C219.806 84.4363 219.252 85.1904 218.399 85.9445C217.524 86.6764 216.778 87.2087 216.714 87.0978C216.65 87.0091 217.29 86.3215 218.122 85.5896C218.975 84.8577 219.721 84.3476 219.806 84.4363Z" fill="#251A51"/>
<path d="M224.562 77.7603C224.562 77.7603 224.349 78.714 223.752 79.6899C223.155 80.688 222.536 81.3755 222.451 81.2868C222.366 81.2203 222.835 80.4218 223.411 79.446C223.986 78.4701 224.455 77.6938 224.562 77.7381V77.7603Z" fill="#251A51"/>
<path d="M226.972 69.8427C227.079 69.8427 226.972 70.7964 226.716 71.9276C226.46 73.0587 226.162 73.9459 226.055 73.9015C225.948 73.8571 226.055 72.9256 226.311 71.8166C226.567 70.7077 226.844 69.8205 226.972 69.8427Z" fill="#251A51"/>
<path d="M227.1 61.5254C227.207 61.5254 227.356 62.4347 227.398 63.588C227.462 64.7414 227.399 65.6951 227.292 65.6729C227.185 65.6729 227.036 64.7414 226.993 63.6102C226.951 62.4791 226.993 61.5254 227.1 61.5254Z" fill="#251A51"/>
<path d="M225.309 53.4079C225.415 53.3635 225.756 54.2285 226.076 55.3597C226.396 56.4686 226.546 57.4001 226.439 57.4223C226.332 57.4445 225.991 56.5795 225.671 55.4927C225.373 54.406 225.202 53.4744 225.309 53.43V53.4079Z" fill="#251A51"/>
<path d="M221.854 45.8889C221.854 45.8889 222.451 46.5987 222.984 47.6189C223.517 48.6391 223.858 49.5041 223.752 49.5485C223.645 49.5928 223.133 48.8166 222.621 47.8185C222.088 46.8204 221.747 45.9555 221.854 45.8889Z" fill="#251A51"/>
<path d="M217.013 39.2573C217.013 39.2573 217.759 39.8118 218.505 40.6767C219.209 41.5639 219.7 42.3624 219.614 42.4289C219.529 42.4955 218.889 41.8301 218.207 40.9429C217.482 40.0779 216.949 39.3238 217.034 39.2351L217.013 39.2573Z" fill="#251A51"/>
<path d="M211.063 33.668C211.063 33.668 211.873 34.0894 212.747 34.8435C213.6 35.5754 214.24 36.2629 214.155 36.3516C214.07 36.4404 213.323 35.9081 212.47 35.1761C211.617 34.4442 210.999 33.7789 211.063 33.668Z" fill="#251A51"/>
<path d="M204.366 29.0774C204.366 29.0774 205.241 29.3657 206.179 29.9868C207.117 30.5856 207.842 31.1622 207.778 31.251C207.714 31.3618 206.904 30.9405 205.966 30.3416C205.027 29.7428 204.302 29.1661 204.366 29.0774Z" fill="#251A51"/>
<path d="M197.179 25.3953C197.179 25.3953 198.075 25.5949 199.099 26.0606C200.101 26.5486 200.89 27.0143 200.826 27.1252C200.783 27.2361 199.909 26.9257 198.907 26.4599C197.904 25.9719 197.137 25.5062 197.179 25.3953Z" fill="#251A51"/>
<path d="M189.672 22.4678C189.715 22.3569 190.589 22.5787 191.634 22.9558C192.679 23.3328 193.511 23.732 193.469 23.8429C193.426 23.9538 192.551 23.732 191.506 23.355C190.461 22.9779 189.651 22.5787 189.672 22.4678Z" fill="#251A51"/>
<path d="M181.91 20.4716C181.91 20.3607 182.827 20.4494 183.914 20.6712C185.002 20.893 185.855 21.1813 185.834 21.2922C185.812 21.4031 184.917 21.3144 183.829 21.0926C182.763 20.8708 181.888 20.5825 181.91 20.4716Z" fill="#251A51"/>
<path d="M173.934 19.6954C173.934 19.5845 174.829 19.5402 175.938 19.6067C177.047 19.6732 177.922 19.8285 177.922 19.9616C177.922 20.0725 177.005 20.1168 175.917 20.0503C174.808 19.9838 173.934 19.8285 173.934 19.6954Z" fill="#251A51"/>
<path d="M165.915 19.7396C165.915 19.6287 166.811 19.4957 167.92 19.4735C169.029 19.4513 169.924 19.5179 169.924 19.6288C169.924 19.7397 169.029 19.8727 167.92 19.8949C166.811 19.9171 165.915 19.8505 165.915 19.7396Z" fill="#251A51"/>
<path d="M157.918 20.4047C157.918 20.2938 158.792 20.0942 159.901 19.9833C161.01 19.8724 161.906 19.8724 161.906 19.9833C161.906 20.0942 161.031 20.2938 159.922 20.4047C158.813 20.5156 157.918 20.5156 157.918 20.4047Z" fill="#251A51"/>
<path d="M149.984 21.5808C149.984 21.4699 150.837 21.226 151.925 21.0486C153.013 20.8711 153.93 20.8268 153.93 20.9377C153.93 21.0486 153.077 21.2925 151.989 21.47C150.901 21.6474 150.006 21.6917 149.984 21.5808Z" fill="#251A51"/>
<path d="M142.115 23.1998C142.094 23.0889 142.947 22.8006 144.034 22.5566C145.122 22.3126 146.018 22.2239 146.039 22.3348C146.06 22.4457 145.207 22.734 144.12 22.978C143.032 23.222 142.136 23.3107 142.115 23.1998Z" fill="#251A51"/>
<path d="M134.352 25.2845C134.309 25.1736 135.163 24.8188 136.229 24.5304C137.295 24.2199 138.191 24.0647 138.212 24.1978C138.233 24.3086 137.402 24.6635 136.335 24.9518C135.269 25.2623 134.373 25.4176 134.352 25.2845Z" fill="#251A51"/>
<path d="M126.717 27.8793C126.675 27.7685 127.506 27.3692 128.551 26.9922C129.596 26.6151 130.492 26.3933 130.513 26.5264C130.556 26.6373 129.724 27.0365 128.679 27.4136C127.634 27.7906 126.76 27.9902 126.717 27.8793Z" fill="#251A51"/>
<path d="M119.296 31.0731C119.296 31.0731 120.021 30.4965 121.045 30.0307C122.068 29.565 122.921 29.2766 122.964 29.3875C123.007 29.4984 122.218 29.9642 121.215 30.4299C120.213 30.8957 119.338 31.184 119.296 31.0731Z" fill="#251A51"/>
</g>
<g opacity="0.36">
<path d="M77.7523 53.8294C77.7523 53.8294 78.1788 52.9644 78.8825 52.0994C79.5863 51.2123 80.2474 50.569 80.3327 50.6356C80.418 50.7021 79.9063 51.4784 79.2025 52.3656C78.4774 53.2527 77.8376 53.8959 77.7523 53.8294Z" fill="#251A51"/>
<path d="M72.2075 59.8393C72.2075 59.8393 72.698 59.0187 73.4871 58.2203C74.2762 57.3996 74.9799 56.823 75.0439 56.8895C75.1292 56.9782 74.5534 57.7102 73.7644 58.5086C72.9753 59.3292 72.2714 59.9059 72.2075 59.8393Z" fill="#251A51"/>
<path d="M66.1936 65.3623C66.1936 65.3623 66.748 64.5861 67.5797 63.8541C68.4328 63.1222 69.1792 62.5899 69.2432 62.6786C69.3072 62.7673 68.6887 63.4549 67.8356 64.1868C66.9826 64.9409 66.2362 65.451 66.1722 65.3623H66.1936Z" fill="#251A51"/>
<path d="M59.753 70.3303C59.753 70.3303 60.3714 69.6205 61.2671 68.9551C62.1628 68.2897 62.9519 67.824 63.0158 67.9127C63.0798 68.0014 62.4188 68.6225 61.5018 69.2878C60.6061 69.9532 59.817 70.419 59.753 70.3303Z" fill="#251A51"/>
<path d="M52.9286 74.7441C52.9286 74.7441 53.5897 74.0787 54.5494 73.502C55.5091 72.9254 56.3194 72.5262 56.3834 72.6149C56.4474 72.7258 55.7223 73.2803 54.7626 73.8569C53.8029 74.4558 52.9926 74.8328 52.9286 74.7441Z" fill="#251A51"/>
<path d="M45.8056 78.5369C45.8056 78.5369 46.5308 77.9381 47.5118 77.428C48.5141 76.9179 49.3458 76.6073 49.4097 76.7182C49.4524 76.8291 48.706 77.3171 47.7037 77.8272C46.7013 78.3373 45.8483 78.6478 45.8056 78.5369Z" fill="#251A51"/>
<path d="M38.3415 81.6193C38.2988 81.5085 39.1093 81.087 40.1543 80.71C41.1992 80.3108 42.0736 80.089 42.1162 80.1999C42.1589 80.3108 41.3485 80.7322 40.3036 81.1092C39.2586 81.5085 38.3841 81.7302 38.3415 81.6193Z" fill="#251A51"/>
<path d="M30.4933 83.3054C30.4933 83.1945 31.3678 82.9506 32.4555 82.7953C33.5431 82.6401 34.4388 82.5957 34.4601 82.7066C34.4815 82.8175 33.607 83.0615 32.498 83.2167C31.3891 83.372 30.4933 83.4163 30.4933 83.3054Z" fill="#251A51"/>
<path d="M22.5601 82.4624C22.6027 82.3515 23.4771 82.5289 24.5434 82.7286C25.6097 82.9503 26.5054 83.1056 26.484 83.2387C26.484 83.3496 25.5671 83.3718 24.4581 83.15C23.3492 82.9282 22.5174 82.5511 22.5387 82.4402L22.5601 82.4624Z" fill="#251A51"/>
<path d="M15.6291 78.4033C15.6291 78.4033 16.3967 78.9134 17.2925 79.5788C18.1668 80.2442 18.9133 80.7765 18.8494 80.8874C18.8067 80.9983 17.9536 80.6213 17.0365 79.9337C16.1195 79.2461 15.5438 78.492 15.6291 78.4033Z" fill="#251A51"/>
<path d="M11.5557 71.3283C11.6623 71.2839 12.0036 72.1489 12.4514 73.1913C12.8993 74.2338 13.2831 75.0766 13.1765 75.1431C13.0912 75.2097 12.5154 74.4556 12.0676 73.3688C11.6197 72.3042 11.449 71.3727 11.5557 71.3283Z" fill="#251A51"/>
<path d="M10.532 63.0778C10.6386 63.0778 10.788 64.0094 10.8306 65.1627C10.8733 66.2938 10.8306 67.2475 10.7027 67.2475C10.596 67.2475 10.4467 66.3382 10.4041 65.1627C10.3614 64.0094 10.4041 63.0557 10.532 63.0557V63.0778Z" fill="#251A51"/>
<path d="M11.7691 54.849C11.8757 54.8712 11.7691 55.8028 11.5345 56.9339C11.2786 58.0429 11.0439 58.9522 10.916 58.9301C10.788 58.9301 10.852 57.9763 11.1079 56.8452C11.3639 55.7141 11.6411 54.8269 11.7691 54.849Z" fill="#251A51"/>
<path d="M14.6693 47.0862C14.6693 47.0862 14.4987 48.04 14.0295 49.0824C13.5604 50.1248 13.1338 50.9454 13.0271 50.9011C12.9205 50.8567 13.1979 49.9696 13.667 48.905C14.1149 47.8403 14.584 47.0419 14.6693 47.0862Z" fill="#251A51"/>
<path d="M18.9771 40.0555C18.9771 40.0555 18.6145 40.9427 17.996 41.8742C17.3562 42.8057 16.7591 43.5154 16.6738 43.4489C16.5672 43.3824 17.0151 42.5617 17.6549 41.6302C18.2946 40.6765 18.8918 39.9889 18.9771 40.0555Z" fill="#251A51"/>
<path d="M24.5221 34.0232C24.5221 34.0232 24.0103 34.8216 23.2212 35.6201C22.4322 36.4185 21.7071 36.973 21.6218 36.9065C21.5365 36.8178 22.1336 36.108 22.9226 35.3096C23.733 34.5111 24.4368 33.9345 24.5221 34.0232Z" fill="#251A51"/>
<path d="M31.0692 29.2321C31.0692 29.2321 30.4081 29.9196 29.4911 30.5184C28.5527 31.1173 27.7423 31.5387 27.6783 31.45C27.6143 31.3613 28.3182 30.7624 29.2565 30.1636C30.1949 29.5426 31.0052 29.1212 31.0692 29.2321Z" fill="#251A51"/>
<path d="M35.8462 26.8811C35.8888 26.992 35.6543 27.1916 35.3344 27.3247C35.0145 27.4577 34.7159 27.4799 34.6519 27.369C34.6093 27.2581 34.8438 27.0585 35.1637 26.9254C35.4836 26.7924 35.8035 26.7702 35.8462 26.8811Z" fill="#251A51"/>
</g>
<path d="M52.5661 33.779L48.4927 26.8369L37.0192 23.2439L46.2748 16.7897L41.3911 2.59497L76.7926 0L52.5661 33.779Z" fill="#D9D7E2"/>
<path d="M37.0192 23.2439L48.4927 26.8369L76.7926 0L46.2748 16.7897L37.0192 23.2439Z" fill="#AEABC6"/>
<path d="M44.7814 93.9231L0.628052 103.508L6.31457 131.841L50.4679 122.256L44.7814 93.9231Z" fill="#EDC483"/>
<path d="M43.2251 93.752C43.2251 93.752 43.1397 93.9072 42.9265 94.1955C42.6492 94.5726 42.3507 94.9718 42.0308 95.4376C41.0925 96.7018 39.9621 98.1878 38.6612 99.94C37.1684 101.914 35.4623 104.132 33.6069 106.572C32.6472 107.814 31.6876 109.189 30.3227 110.276C28.9792 111.407 27.0811 111.85 25.311 111.606C23.5196 111.384 21.8561 110.852 20.2567 110.431C18.6572 109.965 17.1004 109.521 15.6289 109.1C12.6859 108.213 10.0627 107.348 7.86614 106.572C5.66954 105.795 3.89949 105.13 2.70523 104.664C2.1934 104.465 1.74549 104.265 1.31897 104.11C0.999075 103.977 0.849854 103.888 0.849854 103.888C0.849854 103.888 1.02044 103.932 1.36166 104.021C1.78819 104.176 2.25731 104.331 2.76914 104.509C4.21932 104.997 5.94675 105.596 7.97274 106.283C10.1693 107.015 12.8139 107.858 15.7569 108.723C17.2497 109.144 18.7852 109.588 20.3846 110.032C22.0054 110.431 23.6689 110.985 25.3964 111.185C27.1238 111.407 28.8511 111.007 30.1094 109.943C31.4103 108.923 32.37 107.57 33.3297 106.328C35.2064 103.91 36.9339 101.692 38.448 99.7404C39.7916 98.0325 40.9645 96.5687 41.9242 95.3267C42.2654 94.9053 42.5852 94.506 42.8838 94.1512C43.097 93.885 43.2251 93.752 43.2464 93.752H43.2251Z" fill="#251A51"/>
<path d="M6.45886 129.438C6.45886 129.438 8.22886 124.847 10.6387 119.28C13.0486 113.713 15.0959 109.255 15.2026 109.3C15.3092 109.344 13.4324 113.891 11.0226 119.458C8.61271 125.025 6.56549 129.483 6.45886 129.438Z" fill="#251A51"/>
<path d="M47.7249 112.25C47.7249 112.25 46.9359 111.961 45.7203 111.385C44.5047 110.786 42.8412 109.943 41.0285 108.989C39.1944 108.035 37.5523 107.148 36.3794 106.483C35.2064 105.818 34.4813 105.396 34.5027 105.33C34.524 105.285 35.2917 105.618 36.5073 106.195C37.7229 106.793 39.3864 107.636 41.2205 108.59C43.0545 109.544 44.6966 110.431 45.8696 111.096C47.0425 111.762 47.7676 112.183 47.7463 112.25H47.7249Z" fill="#251A51"/>
<path d="M164.785 44.2923C164.465 43.0946 165.147 41.8747 166.299 41.5642C167.45 41.2315 168.623 41.9413 168.922 43.1389C169.221 44.3366 168.559 45.5565 167.408 45.867C166.256 46.1997 165.083 45.4899 164.785 44.2923Z" fill="#4A7C5C"/>
<defs>
<linearGradient id="paint0_linear_45_677" x1="94.1522" y1="275.467" x2="109.571" y2="275.467" gradientUnits="userSpaceOnUse">
<stop stop-color="#E58F7E"/>
<stop offset="0.14" stop-color="#E3857E"/>
<stop offset="0.7" stop-color="#DF637E"/>
<stop offset="1" stop-color="#DE567F"/>
</linearGradient>
<linearGradient id="paint1_linear_45_677" x1="97.0312" y1="82.1523" x2="90.5979" y2="177.89" gradientUnits="userSpaceOnUse">
<stop offset="0.05" stop-color="#6BC1CD"/>
<stop offset="1" stop-color="#A8EBA4"/>
</linearGradient>
<linearGradient id="paint2_linear_45_677" x1="76.1529" y1="80.8877" x2="69.7195" y2="176.625" gradientUnits="userSpaceOnUse">
<stop offset="0.05" stop-color="#6BC1CD"/>
<stop offset="1" stop-color="#A8EBA4"/>
</linearGradient>
</defs>
</svg>
