<svg width="294" height="293" viewBox="0 0 294 293" fill="none" xmlns="http://www.w3.org/2000/svg">
<path d="M119.749 100.933C112.899 89.3413 111.231 74.6977 115.279 61.785C115.768 60.2136 116.391 58.6194 117.636 57.5718C118.882 56.5242 120.906 56.2965 121.995 57.5035C128.245 50.7852 136.54 46.2077 145.347 43.9986C147.104 43.5659 148.928 43.2016 150.707 43.4976C152.486 43.7937 154.243 44.8413 154.977 46.5265C155.711 48.2118 155.089 50.5347 153.421 51.2407C156.779 49.8743 160.159 48.4851 163.718 47.9613C165.008 47.7791 166.475 47.7563 167.454 48.6217C168.788 49.806 168.544 52.1061 167.432 53.4725C166.32 54.8617 164.607 55.545 162.961 56.2054C164.029 55.9093 165.141 55.6133 166.253 55.7044C167.365 55.7955 168.499 56.3876 168.966 57.4124C169.856 59.3709 167.988 61.4661 166.186 62.5593C161.583 65.3604 156.112 66.3397 150.774 66.7497C145.436 67.1824 140.032 67.114 134.739 68.0705C132.982 68.3894 131.158 68.8676 129.846 70.0974C127.622 72.1926 127.578 75.7225 127.733 78.797C127.978 83.1696 128.356 87.6105 127.444 91.8692C126.532 96.1506 124.13 100.341 120.238 102.14" fill="#A6613B"/>
<path d="M253.212 154.68C253.212 154.68 256.57 138.328 259.194 136.643C261.796 134.958 272.005 126.007 272.316 127.92C272.627 129.833 267.401 134.866 268.157 137.053C268.913 139.216 274.429 139.626 274.429 139.626C274.429 139.626 280.612 139.991 282.28 138.966C283.948 137.941 294.645 127.237 293.822 129.925C292.999 132.612 286.683 146.208 282.88 148.166C279.077 150.125 268.891 152.676 268.38 152.744C267.868 152.812 264.51 161.239 264.51 161.239L253.234 154.68H253.212Z" fill="#F0BFAC"/>
<path d="M166.142 180.664C166.142 180.664 205.863 232.612 226.635 224.459C247.407 216.328 267.579 157.504 267.579 157.504L251.077 146.231L216.849 185.766L173.237 127.852L166.12 180.642L166.142 180.664Z" fill="#4D4AE5"/>
<path d="M98.3986 126.098C98.3986 126.098 17.6451 195.672 20.0915 210.065C22.5379 224.458 72.0442 280.778 72.0442 280.778L88.5463 263.88L53.7184 211.933C53.7184 211.933 102.002 175.016 103.225 169.391C104.448 163.766 98.4209 126.098 98.4209 126.098H98.3986Z" fill="#4D4AE5"/>
<path d="M84.2542 153.86C84.2542 153.86 99.7555 219.357 99.155 225.324C98.5545 231.291 92.8388 271.464 92.8388 271.464L184.979 265.816L179.108 141.721C178.174 131.109 170.501 122.318 160.271 120.405C150.529 118.583 136.185 117.422 115.835 118.993C103.136 119.972 92.2828 128.763 88.324 141.152L84.2542 153.883V153.86Z" fill="#4D4AE5"/>
<path d="M112.521 119.403C111.164 120.086 140.988 186.654 140.988 186.654L154.065 119.403C154.065 119.403 121.64 114.894 112.521 119.403Z" fill="white"/>
<path d="M118.837 121.839L120.327 95.4902C120.327 95.4902 115.279 96.1051 113.789 92.1424C112.299 88.1798 116.769 79.0475 124.197 85.4469L123.463 63.4702H159.292C159.292 63.4702 165.786 114.347 143.813 114.347V125.005C143.813 125.005 129.246 136.597 118.86 121.817L118.837 121.839Z" fill="#F0BFAC"/>
<path d="M75.6917 277.043C75.6917 277.043 77.1595 286.563 82.0968 286.563C87.0341 286.563 95.4186 285.378 95.4186 285.378C95.4186 285.378 102.825 294.556 103.314 291.596C103.803 288.635 101.49 282.122 101.49 282.122C101.49 282.122 105.249 291.3 106.694 286.859C108.14 282.418 101.779 275.29 101.779 275.29C101.779 275.29 113.077 280.915 113.366 278.546C113.655 276.178 103.425 269.96 103.336 269.96H91.66L88.5464 263.88L75.6917 277.043Z" fill="#F0BFAC"/>
<path d="M145.392 98.2917C145.392 98.2917 144.858 98.7244 143.835 98.9293C142.812 99.1343 141.278 99.066 139.854 98.2233C138.431 97.3807 137.608 96.0371 137.297 95.0122C136.963 93.9874 137.008 93.3042 137.074 93.3042C137.141 93.3042 137.208 93.9419 137.608 94.8756C137.986 95.8093 138.809 97.0163 140.099 97.7906C141.411 98.5649 142.835 98.7016 143.813 98.5877C144.814 98.4739 145.392 98.2006 145.414 98.2917H145.392Z" fill="#1B1A51"/>
<path d="M138.053 92.9395C138.008 93.0534 137.297 92.9167 136.563 93.3494C135.806 93.7594 135.562 94.4881 135.451 94.4426C135.406 94.4426 135.362 94.2149 135.495 93.896C135.606 93.5772 135.918 93.19 136.34 92.9395C136.785 92.689 137.252 92.6207 137.586 92.689C137.919 92.7346 138.075 92.8712 138.053 92.9395Z" fill="#1B1A51"/>
<path d="M120.35 92.6891C120.35 92.6891 120.95 92.3703 121.261 91.4138C121.417 90.9583 121.439 90.3434 121.217 89.7513C121.017 89.1592 120.439 88.6582 119.771 88.772C119.171 88.8176 118.837 89.5919 119.082 90.0246L118.704 90.1613C118.37 88.0661 118.17 86.563 118.259 86.563C118.348 86.563 118.704 87.9977 119.104 90.0929L119.327 91.2544L118.704 90.2296C118.281 89.5236 118.793 88.4304 119.682 88.3165C120.127 88.2482 120.572 88.3849 120.906 88.6354C121.239 88.8859 121.462 89.2503 121.573 89.5919C121.817 90.2979 121.729 91.0039 121.528 91.5049C121.328 92.0059 120.995 92.3475 120.75 92.507C120.505 92.6664 120.327 92.6891 120.327 92.6663L120.35 92.6891Z" fill="#1B1A51"/>
<path d="M138.209 71.0316C138.32 71.6465 137.008 72.4436 135.273 72.7852C133.538 73.1268 132.026 72.8991 131.915 72.2842C131.803 71.6693 133.116 70.8722 134.85 70.5306C136.585 70.189 138.097 70.4167 138.209 71.0316Z" fill="#A6613B"/>
<path d="M156.556 70.758C156.512 71.3957 155.355 71.8284 153.999 71.7145C152.62 71.6007 151.552 71.0085 151.597 70.3936C151.641 69.756 152.798 69.3233 154.155 69.4371C155.533 69.551 156.601 70.1431 156.556 70.758Z" fill="#A6613B"/>
<path d="M147.016 114.143C147.016 114.143 146.682 114.256 146.081 114.347C145.481 114.461 144.591 114.552 143.502 114.575C141.322 114.621 138.275 114.256 135.139 113.049C132.004 111.82 129.49 110.02 127.889 108.495C127.088 107.743 126.488 107.083 126.11 106.582C125.732 106.103 125.532 105.807 125.554 105.807C125.621 105.739 126.466 106.809 128.112 108.244C129.735 109.679 132.226 111.387 135.295 112.594C138.364 113.778 141.344 114.188 143.502 114.234C145.659 114.279 146.993 114.051 146.993 114.143H147.016Z" fill="#1B1A51"/>
<path d="M91.6379 269.96C91.6379 269.96 93.1725 254.93 94.5291 256.843C95.8635 258.756 96.1304 271.122 96.1304 271.122L91.6379 269.983V269.96Z" fill="#F0BFAC"/>
<path d="M144.636 265.998C144.502 265.998 143.591 248.234 142.59 226.326C141.589 204.418 140.877 186.631 141.011 186.631C141.144 186.631 142.056 204.372 143.057 226.303C144.058 248.212 144.769 265.975 144.636 265.998Z" fill="#1B1A51"/>
<path d="M139.921 186.654C139.921 186.654 138.942 186.199 137.319 185.128C135.695 184.058 133.471 182.236 131.225 179.526C128.979 176.816 126.777 173.126 125.354 168.617C123.908 164.131 123.374 158.802 124.397 153.382L124.553 153.655C124.264 153.564 123.93 153.45 123.619 153.359C118.393 151.582 114.189 147.961 111.565 143.93C108.896 139.899 107.828 135.481 107.673 131.838C107.495 128.171 108.162 125.233 108.785 123.297C109.408 121.362 109.986 120.382 109.986 120.382C109.986 120.382 109.897 120.656 109.719 121.157C109.519 121.658 109.252 122.386 108.985 123.366C108.429 125.301 107.828 128.217 108.029 131.838C108.229 135.436 109.296 139.74 111.943 143.703C114.545 147.62 118.682 151.173 123.797 152.926C124.108 153.017 124.42 153.131 124.709 153.222L124.909 153.29L124.864 153.495C123.864 158.802 124.375 164.062 125.776 168.503C127.155 172.967 129.29 176.634 131.492 179.321C133.694 182.031 135.851 183.876 137.43 184.992C138.186 185.584 138.876 185.925 139.276 186.221C139.698 186.495 139.921 186.654 139.921 186.677V186.654Z" fill="#1B1A51"/>
<path d="M140.989 186.654C140.989 186.654 141.167 186.472 141.545 186.153C141.923 185.834 142.501 185.379 143.146 184.741C144.503 183.489 146.415 181.53 148.194 178.683C149.996 175.859 151.597 172.124 152.375 167.752C152.776 165.566 153.02 163.243 153.065 160.806C153.065 160.191 153.065 159.599 153.065 158.984C153.065 158.415 152.843 157.822 152.642 157.253C152.175 156.114 151.53 155.044 150.796 153.996C150.04 152.903 149.217 151.878 148.417 150.945L148.261 150.785L148.417 150.626C150.018 148.941 151.53 147.255 152.931 145.593C154.31 143.908 155.645 142.268 156.49 140.514C157.913 136.825 158.113 133.136 157.891 130.175C157.669 127.192 156.935 124.869 156.379 123.32C156.09 122.546 155.845 121.954 155.645 121.567C155.467 121.179 155.378 120.952 155.4 120.952C155.4 120.952 155.889 121.726 156.534 123.252C157.157 124.8 157.913 127.123 158.202 130.152C158.469 133.158 158.314 136.871 156.868 140.697C155.978 142.564 154.644 144.204 153.265 145.912C151.864 147.597 150.352 149.282 148.728 150.99V150.671C149.573 151.628 150.374 152.653 151.152 153.769C151.886 154.839 152.553 155.932 153.043 157.139C153.265 157.754 153.465 158.369 153.487 159.029C153.487 159.644 153.487 160.282 153.487 160.897C153.421 163.356 153.176 165.702 152.754 167.911C151.931 172.352 150.263 176.133 148.417 178.957C146.571 181.803 144.614 183.739 143.213 184.969C141.811 186.199 140.922 186.768 140.922 186.768L140.989 186.654Z" fill="#1B1A51"/>
<path d="M148.35 216.897C148.217 216.897 148.039 216.237 147.95 215.417C147.861 214.574 147.883 213.891 148.016 213.891C148.15 213.891 148.328 214.552 148.417 215.371C148.506 216.214 148.484 216.897 148.35 216.897Z" fill="#1B1A51"/>
<path d="M151.019 246.094C150.885 246.094 150.707 245.433 150.618 244.613C150.529 243.771 150.552 243.087 150.685 243.087C150.818 243.087 150.996 243.748 151.085 244.568C151.174 245.41 151.152 246.094 151.019 246.094Z" fill="#1B1A51"/>
<path d="M183.066 206.9C182.933 206.9 181.977 196.401 180.931 183.443C179.886 170.485 179.13 159.963 179.263 159.94C179.397 159.94 180.353 170.439 181.398 183.397C182.444 196.356 183.2 206.877 183.066 206.9Z" fill="#1B1A51"/>
<path d="M99.155 175.654C99.155 175.654 98.8881 175.927 98.3766 176.383C97.6427 176.975 96.9087 177.59 96.1303 178.204C94.2399 179.753 91.6156 181.871 88.7689 184.285C85.9222 186.699 83.3868 188.931 81.5631 190.548C80.8292 191.208 80.0953 191.823 79.3836 192.461C78.8721 192.916 78.5607 193.144 78.5385 193.121C78.5385 193.099 78.7831 192.825 79.2501 192.324C79.9396 191.664 80.629 190.981 81.3407 190.297C83.1199 188.612 85.633 186.335 88.4798 183.921C91.3265 181.507 93.9731 179.411 95.9302 177.954C96.7308 177.362 97.487 176.815 98.2654 176.246C98.8214 175.859 99.1328 175.654 99.155 175.677V175.654Z" fill="#1B1A51"/>
<path d="M84.1207 257.891C84.1207 257.891 83.8983 258.164 83.4313 258.574L81.4519 260.259C79.3168 262.013 77.1373 263.766 74.7799 265.702C72.3779 267.592 70.1985 269.323 68.0189 271.031L65.9284 272.602C65.4391 272.967 65.1499 273.149 65.1277 273.126C65.1277 273.103 65.3501 272.853 65.8171 272.466L67.7965 270.781C69.9538 269.027 72.1111 267.251 74.4685 265.338C76.8705 263.447 79.0499 261.717 81.2295 259.986L83.2978 258.414C83.7871 258.05 84.0762 257.868 84.0984 257.891H84.1207Z" fill="#1B1A51"/>
<path d="M72.2223 274.538C72.1111 274.607 71.8442 274.311 71.644 273.901C71.4439 273.491 71.3772 273.104 71.4884 273.058C71.5996 272.99 71.8665 273.286 72.0444 273.696C72.2446 274.106 72.3112 274.493 72.2 274.538H72.2223Z" fill="#1B1A51"/>
<path d="M266.8 164.427C266.8 164.427 266.445 164.336 265.866 164.108C265.043 163.766 264.221 163.425 263.375 163.083C261.285 162.195 258.394 160.988 255.169 159.735C251.944 158.46 249.008 157.367 246.873 156.593C246.028 156.274 245.183 155.978 244.36 155.659C243.76 155.431 243.448 155.295 243.448 155.272C243.448 155.249 243.804 155.317 244.405 155.5C245.25 155.773 246.117 156.023 246.985 156.297C249.142 157.003 252.1 158.05 255.347 159.326C258.572 160.601 261.463 161.853 263.531 162.81C264.354 163.197 265.155 163.584 265.955 163.994C266.534 164.29 266.823 164.45 266.823 164.495L266.8 164.427Z" fill="#1B1A51"/>
<path d="M250.209 150.694C250.209 150.694 249.898 151.423 249.298 152.152C248.697 152.858 248.141 153.382 248.03 153.291C247.941 153.2 248.341 152.562 248.942 151.833C249.542 151.127 250.098 150.603 250.209 150.694Z" fill="#1B1A51"/>
<path d="M216.271 195.057C216.137 195.057 216.049 192.826 216.049 190.07C216.049 187.314 216.16 185.083 216.271 185.083C216.382 185.083 216.493 187.314 216.493 190.07C216.493 192.826 216.382 195.057 216.271 195.057Z" fill="#1B1A51"/>
<path d="M222.053 196.538C221.92 196.583 221.053 194.238 219.652 191.482C218.273 188.726 216.894 186.631 217.005 186.563C217.094 186.494 218.651 188.476 220.074 191.277C221.497 194.055 222.187 196.515 222.076 196.56L222.053 196.538Z" fill="#1B1A51"/>
<path d="M54.1856 211.728C54.1856 211.864 52.2952 211.728 50.0045 211.409C47.7138 211.113 45.8679 210.748 45.8901 210.612C45.8901 210.475 47.7805 210.612 50.0712 210.931C52.362 211.227 54.2079 211.591 54.1856 211.728Z" fill="#1B1A51"/>
<path d="M54.5413 210.225C54.4746 210.361 52.651 209.291 50.1378 208.767C47.6247 208.243 45.5341 208.494 45.5341 208.335C45.4896 208.221 47.6469 207.742 50.249 208.289C52.8511 208.813 54.6303 210.111 54.5636 210.202L54.5413 210.225Z" fill="#1B1A51"/>
<path d="M118.237 120.883C118.015 119.949 118.237 113.094 118.237 113.094C118.237 113.094 135.184 114.438 137.007 129.355C137.007 129.355 140.099 116.989 144.636 116.26L145.392 124.413L142.99 133.135L133.293 135.185L122.907 131.655L118.237 120.906V120.883Z" fill="white"/>
<path d="M136.852 132.202L134.917 138.306L137.941 142.769L139.187 136.689L136.852 132.202Z" fill="#1B1A51"/>
<path d="M137.119 141.562L133.783 170.462L141.389 187.565L147.016 159.827L138.364 140.697L137.119 141.562Z" fill="#1B1A51"/>
<path d="M135.384 81.7351C135.25 81.7351 135.161 80.8014 135.161 79.6628C135.161 78.5241 135.273 77.5903 135.384 77.5903C135.495 77.5903 135.606 78.5241 135.606 79.6628C135.606 80.8014 135.495 81.7351 135.384 81.7351Z" fill="#423030"/>
<path d="M154.244 80.8473C154.11 80.8473 153.977 80.0047 153.954 78.9343C153.932 77.8639 153.999 76.9985 154.132 76.9985C154.266 76.9985 154.399 77.8412 154.421 78.9115C154.444 79.9819 154.377 80.8473 154.244 80.8473Z" fill="#423030"/>
<path opacity="0.58" d="M194.921 87.383L203.438 117.672L215.337 115.304L214.18 109.2L217.561 107.128L223.944 113.596L244.115 109.565L246.74 101.662L241.002 100.341L248.408 97.8134L246.807 89.3415L240.401 89.9109L249.208 87.4513L247.207 76.9526L226.701 81.0519C226.701 81.0519 228.036 66.3855 221.964 61.603L217.338 62.5368C217.338 62.5368 218.895 67.1371 218.762 69.9838C218.606 72.8305 214.581 85.9255 214.581 85.9255L208.287 88.9316L206.797 84.6501L194.965 87.3602L194.921 87.383Z" fill="url(#paint0_linear_48_1303)"/>
<path d="M56.7654 25.5067L51.9616 42.587L45.245 41.2434L45.89 37.8045L43.9773 36.6203L40.3745 40.2641L29.0098 37.9867L27.542 33.5231L30.789 32.7715L26.6079 31.3368L27.5197 26.5543L31.1449 26.8731L26.1853 25.4839L27.3196 19.5627L38.8844 21.8629C38.8844 21.8629 38.1282 13.596 41.5532 10.9087L44.1553 11.4325C44.1553 11.4325 43.2657 14.0287 43.3546 15.6228C43.4436 17.217 45.7121 24.6185 45.7121 24.6185L49.2705 26.3266L50.1156 23.9125L56.7876 25.4383L56.7654 25.5067Z" fill="#0D0D3A"/>
<path d="M29.8329 61.8535L28.0092 95.9687H67.3295L68.9086 104.281L71.0436 95.9687H101.29L103.358 64.222L29.8329 61.8535Z" fill="#EDC483"/>
<path d="M50.9609 77.8176C50.9609 81.7575 47.8472 84.9458 43.9997 84.9458C40.1522 84.9458 37.0386 81.7575 37.0386 77.8176C37.0386 73.8778 40.1522 70.6895 43.9997 70.6895C47.8472 70.6895 50.9609 73.8778 50.9609 77.8176Z" fill="white"/>
<path d="M56.721 72.8077C68.7751 73.6048 80.8514 73.3315 92.9055 74.4247C93.7728 74.493 93.7951 73.0583 92.9055 73.0355C80.8736 72.5345 68.7751 71.4185 56.721 72.1473C56.2984 72.1701 56.2984 72.785 56.721 72.8077Z" fill="white"/>
<path d="M56.721 77.9772C68.7751 78.7743 80.8514 78.501 92.9055 79.5941C93.7728 79.6624 93.7951 78.2277 92.9055 78.2049C80.8736 77.7039 68.7751 76.588 56.721 77.3167C56.2984 77.3395 56.2984 77.9544 56.721 77.9772Z" fill="white"/>
<path d="M56.721 83.8072C68.7751 84.6043 80.8514 84.3311 92.9055 85.4242C93.7728 85.4925 93.7951 84.0578 92.9055 84.035C80.8736 83.534 68.7751 82.4181 56.721 83.1468C56.2984 83.1696 56.2984 83.7845 56.721 83.8072Z" fill="white"/>
<g opacity="0.48">
<path d="M48.2032 84.6272C49.6266 83.9667 47.6027 81.3933 46.4018 80.3685C45.2008 79.3437 43.5105 78.9565 41.976 79.3437C40.4636 79.7308 39.1515 80.9151 38.5732 82.3954C38.5732 82.3954 41.5312 87.7244 48.2032 84.6272Z" fill="#EDC483"/>
</g>
<path opacity="0.48" d="M46.5127 75.677C46.5127 77.1117 45.3785 78.2504 43.9996 78.2504C42.6207 78.2504 41.4865 77.0889 41.4865 75.677C41.4865 74.265 42.6207 73.1035 43.9996 73.1035C45.3785 73.1035 46.5127 74.265 46.5127 75.677Z" fill="#EDC483"/>
<path d="M74.9357 15.4405L77.1152 38.852L109.652 35.1626L112.81 45.6841L115.857 33.5684L131.781 32.1337L127.711 0.933594L74.9357 15.4405Z" fill="white"/>
<path d="M85.0102 22.9106C97.7537 21.0431 110.431 18.7657 122.974 15.7824C123.597 15.6457 123.33 14.6664 122.707 14.8031C110.141 17.5815 97.5313 20.1777 84.8545 22.3412C84.4987 22.4096 84.6544 22.9561 85.0102 22.8878V22.9106Z" fill="#353584"/>
<path d="M85.0102 27.3969C97.7537 25.5294 110.431 23.2521 122.974 20.2687C123.597 20.1321 123.33 19.1528 122.707 19.2894C110.141 22.0678 97.5313 24.664 84.8545 26.8275C84.4987 26.8958 84.6544 27.4424 85.0102 27.3741V27.3969Z" fill="#353584"/>
<path d="M130.958 6.9916C130.958 8.54022 129.735 9.79276 128.223 9.79276C126.71 9.79276 125.487 8.54022 125.487 6.9916C125.487 5.44298 126.71 4.19043 128.223 4.19043C129.735 4.19043 130.958 5.44298 130.958 6.9916Z" fill="#DB5E77"/>
<path d="M160.182 6.9916L158.336 34.639H183.089V48.9182L191.384 38.7155L266.8 37.1896V4.19043L160.182 6.9916Z" fill="white"/>
<path d="M188.249 15.7822C211.512 15.8505 234.842 14.8257 258.105 15.1673C259.773 15.1901 259.773 13.7553 258.06 13.7781C234.842 14.0286 211.423 13.6414 188.226 15.1217C187.426 15.1673 187.426 15.7822 188.226 15.7822H188.249Z" fill="#353584"/>
<path d="M188.404 20.9291C211.667 20.9975 234.997 19.9726 258.26 20.3142C259.928 20.337 259.928 18.9023 258.216 18.9251C234.997 19.1756 211.578 18.7884 188.382 20.2687C187.581 20.3143 187.581 20.9291 188.382 20.9291H188.404Z" fill="#353584"/>
<path d="M188.582 26.7592C211.845 26.8275 235.175 25.8027 258.438 26.1444C260.106 26.1671 260.106 24.7324 258.394 24.7552C235.175 25.0057 211.756 24.6185 188.56 26.0988C187.759 26.1443 187.759 26.7592 188.56 26.7592H188.582Z" fill="#353584"/>
<path d="M179.397 26.1439C180.198 25.734 179.397 24.0032 178.174 22.9784C176.973 21.9536 175.283 21.5664 173.748 21.9535C172.236 22.3407 170.924 23.525 170.345 25.0053C170.345 25.0053 172.881 29.5372 179.397 26.1439Z" fill="#353584"/>
<path d="M177.929 18.4924C177.929 19.9271 176.795 21.0658 175.416 21.0658C174.037 21.0658 172.903 19.9044 172.903 18.4924C172.903 17.0804 174.037 15.9189 175.416 15.9189C176.795 15.9189 177.929 17.0804 177.929 18.4924Z" fill="#353584"/>
<path d="M31.1226 141.858C33.8581 141.858 33.8581 137.531 31.1226 137.531C28.387 137.531 28.387 141.858 31.1226 141.858Z" fill="#D1D1E8"/>
<path d="M30.8559 115.259C30.5891 115.259 30.3 115.259 30.0331 115.259C29.3436 115.259 29.3436 116.352 30.0331 116.375C30.3 116.375 30.5891 116.375 30.8559 116.375C31.5676 116.375 31.5676 115.236 30.8559 115.236V115.259Z" fill="#D1D1E8"/>
<path d="M54.6973 144.841C56.2319 144.841 56.2319 142.382 54.6973 142.382C53.1627 142.382 53.1627 144.841 54.6973 144.841Z" fill="#D1D1E8"/>
<path d="M20.3363 172.443C20.0694 172.398 19.8247 172.352 19.5579 172.306C18.2457 172.056 18.2457 174.151 19.5579 173.923C19.8247 173.878 20.0694 173.832 20.3363 173.787C20.9812 173.673 20.9812 172.58 20.3363 172.466V172.443Z" fill="#D1D1E8"/>
<path d="M179.108 70.0745C179.13 70.3706 179.175 70.6894 179.197 70.9855C179.353 72.443 181.265 72.4658 181.421 70.9855C181.443 70.6894 181.488 70.3706 181.51 70.0745C181.666 68.4804 178.93 68.4804 179.086 70.0745H179.108Z" fill="#D1D1E8"/>
<path d="M175.861 109.086C176.884 109.086 176.884 107.469 175.861 107.469C174.838 107.469 174.838 109.086 175.861 109.086Z" fill="#D1D1E8"/>
<path d="M218.517 146.39C219.54 146.39 219.563 144.75 218.517 144.75C217.472 144.75 217.472 146.39 218.517 146.39Z" fill="#D1D1E8"/>
<path d="M270.915 101.526C272.716 101.526 272.716 98.6562 270.915 98.6562C269.113 98.6562 269.113 101.526 270.915 101.526Z" fill="#D1D1E8"/>
<path d="M279.811 83.0558C281.279 83.0558 281.279 80.7329 279.811 80.7329C278.343 80.7329 278.343 83.0558 279.811 83.0558Z" fill="#D1D1E8"/>
<path d="M262.352 64.6094C262.352 64.45 262.375 64.3133 262.397 64.1539C262.197 64.5183 261.974 64.8827 261.774 65.2698C262.886 64.6777 263.709 63.8579 263.531 62.4687C263.375 61.2617 262.352 60.3052 261.129 60.3052C260.062 60.3052 259.061 61.0795 258.772 62.1498C258.371 63.6301 259.305 64.6549 260.484 65.2926C260.284 64.9282 260.062 64.5639 259.861 64.1767C259.861 64.3361 259.884 64.4728 259.906 64.6322C260.062 66.2263 262.174 66.2263 262.33 64.6322L262.352 64.6094Z" fill="#D1D1E8"/>
<path d="M15.0876 0.0452536C15.0876 0.0452536 15.1097 0 15.0876 0C15.0655 0 15.0655 0.0452536 15.0876 0.0452536Z" fill="#D1D1E8"/>
<path d="M1.7658 45.5248C2.92228 45.5248 2.92228 43.6802 1.7658 43.6802C0.609317 43.6802 0.609317 45.5248 1.7658 45.5248Z" fill="#D1D1E8"/>
<defs>
<linearGradient id="paint0_linear_48_1303" x1="214.025" y1="58.9613" x2="237.46" y2="134.878" gradientUnits="userSpaceOnUse">
<stop offset="0.05" stop-color="#6BC1CD"/>
<stop offset="1" stop-color="#A8EBA4"/>
</linearGradient>
</defs>
</svg>
