<svg width="32" height="32" viewBox="0 0 32 32" fill="none" xmlns="http://www.w3.org/2000/svg">
<path d="M11.9999 16.0001C11.9999 17.841 10.5075 19.3334 8.66658 19.3334C6.82564 19.3334 5.33325 17.841 5.33325 16.0001C5.33325 14.1591 6.82564 12.6667 8.66658 12.6667C10.5075 12.6667 11.9999 14.1591 11.9999 16.0001Z" fill="white" stroke="white"/>
<path d="M18.6667 8.66675L12 13.3334" stroke="white" stroke-linecap="round"/>
<path d="M18.6667 23.3334L12 18.6667" stroke="white" stroke-linecap="round"/>
<path d="M25.3334 24.6666C25.3334 26.5075 23.841 27.9999 22.0001 27.9999C20.1591 27.9999 18.6667 26.5075 18.6667 24.6666C18.6667 22.8257 20.1591 21.3333 22.0001 21.3333C23.841 21.3333 25.3334 22.8257 25.3334 24.6666Z" fill="white" stroke="white"/>
<path d="M25.3334 7.33333C25.3334 9.17428 23.841 10.6667 22.0001 10.6667C20.1591 10.6667 18.6667 9.17428 18.6667 7.33333C18.6667 5.49239 20.1591 4 22.0001 4C23.841 4 25.3334 5.49239 25.3334 7.33333Z" fill="white" stroke="white"/>
</svg>
