<svg width="24" height="25" viewBox="0 0 24 25" fill="none" xmlns="http://www.w3.org/2000/svg">
<path d="M16.9949 4.5H6.99488C3.16488 4.5 2.09488 5.42 2.00488 9C3.93488 9 5.49488 10.57 5.49488 12.5C5.49488 14.43 3.93488 15.99 2.00488 16C2.09488 19.58 3.16488 20.5 6.99488 20.5H16.9949C20.9949 20.5 21.9949 19.5 21.9949 15.5V9.5C21.9949 5.5 20.9949 4.5 16.9949 4.5Z" stroke="#D0D0D0" stroke-width="1.5" stroke-linecap="round" stroke-linejoin="round"/>
<path d="M8.99316 4.5V8" stroke="#D0D0D0" stroke-width="1.5" stroke-linecap="round" stroke-linejoin="round"/>
<path d="M8.99316 17V20.5" stroke="#D0D0D0" stroke-width="1.5" stroke-linecap="round" stroke-linejoin="round"/>
<path d="M15.025 9.82991L15.645 11.0799C15.705 11.1999 15.825 11.2899 15.955 11.3099L17.335 11.5099C17.675 11.5599 17.815 11.9799 17.565 12.2199L16.565 13.1899C16.465 13.2799 16.425 13.4199 16.445 13.5599L16.685 14.9299C16.745 15.2699 16.385 15.5299 16.085 15.3699L14.855 14.7199C14.735 14.6599 14.585 14.6599 14.465 14.7199L13.235 15.3699C12.925 15.5299 12.575 15.2699 12.635 14.9299L12.875 13.5599C12.895 13.4199 12.855 13.2899 12.755 13.1899L11.765 12.2199C11.515 11.9799 11.655 11.5599 11.995 11.5099L13.375 11.3099C13.515 11.2899 13.625 11.2099 13.685 11.0799L14.295 9.82991C14.435 9.51991 14.875 9.51991 15.025 9.82991Z" stroke="#D0D0D0" stroke-width="1.5" stroke-linecap="round" stroke-linejoin="round"/>
</svg>
