<svg width="24" height="25" viewBox="0 0 24 25" fill="none" xmlns="http://www.w3.org/2000/svg">
<path d="M2.75 16.69V16.7C2.75 16.6967 2.75 16.6933 2.75 16.69ZM5.92164 21.49H6.02H6.03H6.48924L6.69801 21.081C7.52954 19.4519 9.5341 18.22 12 18.22C14.4661 18.22 16.4797 19.4619 17.3013 21.0796L17.5758 21.6201C17.1573 21.706 16.6938 21.75 16.19 21.75H7.81C7.09481 21.75 6.46082 21.6613 5.92164 21.49ZM20.0111 20.3424C19.6547 20.7193 19.2213 21.0258 18.7108 21.2547C19.2116 21.0267 19.6479 20.7233 20.0111 20.3424Z" fill="#9C95DC" stroke="#9C95DC" stroke-width="1.5"/>
<path d="M9.16992 12.08C9.16992 10.5142 10.4341 9.25 11.9999 9.25C13.5657 9.25 14.8299 10.5142 14.8299 12.08C14.8299 13.6485 13.563 14.92 11.9999 14.92C10.4369 14.92 9.16992 13.6485 9.16992 12.08Z" fill="#9C95DC" stroke="#9C95DC" stroke-width="1.5"/>
</svg>
